<?xml version="1.0" standalone="no"?>
<!DOCTYPE svg PUBLIC "-//W3C//DTD SVG 20010904//EN"
 "http://www.w3.org/TR/2001/REC-SVG-20010904/DTD/svg10.dtd">
<svg version="1.0" xmlns="http://www.w3.org/2000/svg"
 width="16.000000pt" height="16.000000pt" viewBox="0 0 16.000000 16.000000"
 preserveAspectRatio="xMidYMid meet">
<metadata>
Created by potrace 1.11, written by Peter Selinger 2001-2013
</metadata>
<g transform="translate(0.000000,16.000000) scale(0.001563,-0.001563)"
fill="#000000" stroke="none">
<path d="M3052 10206 c5 -17 14 -50 20 -73 10 -46 8 -46 93 8 61 39 75 42 75
17 0 -17 2 -18 15 -8 13 11 15 6 15 -34 0 -39 -3 -46 -20 -46 -27 0 -25 -11 5
-34 14 -10 25 -22 25 -26 0 -9 -39 -1 -55 10 -10 7 -121 50 -130 50 -14 0 12
-32 38 -48 18 -11 59 -36 91 -56 33 -20 64 -36 69 -36 5 0 7 17 3 38 -5 34 -2
41 24 60 35 27 41 27 33 5 -9 -26 2 -13 26 30 20 37 21 40 5 107 -9 39 -19 68
-24 65 -4 -3 -1 -32 7 -65 20 -76 13 -102 -30 -118 -18 -7 -38 -12 -45 -12
-11 0 -9 31 4 52 4 7 3 8 -4 4 -9 -5 -12 14 -12 68 l0 76 -32 0 c-26 0 -41 -9
-73 -45 -52 -57 -68 -50 -74 32 -1 6 -14 11 -30 11 -28 -1 -28 -2 -19 -32z
m68 -66 c0 -5 -5 -10 -11 -10 -5 0 -7 5 -4 10 3 6 8 10 11 10 2 0 4 -4 4 -10z"/>
<path d="M4887 9841 c-97 -7 -97 -7 -122 -84 -14 -41 -14 -51 -1 -75 20 -39
35 -362 16 -362 -10 0 -10 -3 0 -14 6 -8 18 -12 25 -10 7 3 53 9 102 12 78 6
88 9 90 27 2 15 1 16 -5 5 -5 -11 -28 -16 -89 -18 l-83 -3 0 116 c0 67 4 114
9 111 5 -4 7 4 3 16 -4 17 -2 20 11 15 12 -4 14 -2 10 11 -4 9 -10 20 -15 23
-5 3 -3 11 5 17 18 16 67 -20 67 -49 0 -11 4 -18 9 -14 5 3 12 -4 16 -15 3
-11 14 -20 24 -20 9 0 22 -5 28 -11 12 -12 18 2 48 134 11 48 13 73 6 81 -6 7
-7 17 -3 22 4 5 -3 1 -15 -9 -14 -12 -23 -15 -28 -8 -4 8 -12 8 -26 1 -10 -6
-19 -8 -19 -5 0 3 -9 1 -20 -5 -16 -8 -20 -8 -18 2 2 8 -5 12 -17 10 -18 -2
-17 0 5 17 27 22 50 27 50 12 0 -5 -8 -11 -17 -13 -13 -2 -14 -6 -6 -11 7 -4
20 0 30 10 10 10 28 17 41 15 12 -2 22 2 22 8 0 17 -29 70 -38 68 -4 0 -47 -4
-95 -7z m-51 -95 c-4 -28 -36 -30 -36 -2 0 15 6 22 20 22 13 0 18 -6 16 -20z
m34 14 c0 -5 -5 -10 -11 -10 -5 0 -7 5 -4 10 3 6 8 10 11 10 2 0 4 -4 4 -10z
m-20 -104 c0 -3 -4 -8 -10 -11 -5 -3 -10 -1 -10 4 0 6 5 11 10 11 6 0 10 -2
10 -4z"/>
<path d="M3266 9775 c-21 -32 -21 -32 19 -27 45 5 62 -9 70 -59 4 -21 11 -39
15 -39 5 0 18 -20 29 -44 10 -24 29 -54 40 -65 l22 -22 -31 -39 c-17 -22 -28
-44 -25 -50 4 -6 -6 -22 -22 -36 -30 -26 -43 -30 -43 -13 0 5 -4 7 -10 4 -13
-8 0 28 14 38 7 5 3 7 -9 5 -11 -2 -25 -10 -32 -18 -15 -20 -27 -7 -18 20 4
13 12 19 21 16 9 -3 12 -1 9 4 -3 6 1 10 10 10 9 0 13 -4 10 -10 -3 -5 -1 -10
4 -10 14 0 14 6 0 32 -8 15 -8 19 0 14 6 -4 11 0 11 9 0 8 6 18 14 21 12 5 11
11 -4 37 -10 18 -21 52 -24 77 -3 25 -11 47 -17 49 -6 2 -20 12 -30 22 -25 25
-29 24 -29 -7 0 -21 4 -25 19 -21 14 3 18 1 14 -9 -3 -8 -9 -14 -14 -14 -15 0
-10 -30 7 -37 8 -3 13 -12 10 -19 -3 -7 -1 -16 4 -19 5 -3 8 -14 7 -25 -1 -10
-5 -16 -9 -14 -4 3 -8 -6 -8 -20 0 -14 5 -26 11 -26 5 0 7 -5 3 -11 -3 -6 -17
-8 -32 -4 l-25 6 5 -59 c3 -32 1 -66 -4 -76 -7 -12 -4 -32 8 -66 l17 -48 102
94 102 94 7 108 c4 59 8 116 9 127 2 14 -22 35 -98 82 -55 35 -103 63 -106 63
-4 0 -14 -11 -23 -25z"/>
<path d="M3217 9663 c-21 -37 -25 -229 -6 -265 13 -24 14 -13 17 123 2 138 0
162 -11 142z"/>
<path d="M4753 9615 c0 -33 2 -45 4 -27 2 18 2 45 0 60 -2 15 -4 0 -4 -33z"/>
<path d="M4855 9551 c-7 -13 5 -19 35 -17 14 1 28 -3 32 -9 5 -6 8 -2 8 9 0
13 -5 17 -20 13 -11 -3 -23 -1 -26 4 -7 12 -21 12 -29 0z"/>
<path d="M4683 8773 c-46 -14 -83 -29 -83 -33 0 -4 39 1 86 11 48 11 89 18 91
15 2 -2 1 -20 -2 -40 l-7 -35 -62 5 c-33 3 -76 7 -93 9 -38 3 -39 0 -18 -52
12 -31 31 -47 93 -84 42 -26 77 -52 77 -60 0 -7 -35 -38 -78 -68 -87 -62 -98
-80 -143 -230 -15 -47 -28 -91 -31 -97 -2 -5 19 -29 46 -52 l49 -42 91 43 90
44 -61 98 c-70 111 -72 91 21 215 l56 74 -3 87 c-2 86 -2 87 24 93 14 4 28 5
30 3 2 -2 -3 -23 -11 -47 -23 -65 -11 -58 19 11 29 67 30 64 -28 127 -35 38
-45 38 -153 5z"/>
<path d="M3284 8427 c-11 -6 -35 -29 -53 -49 -18 -21 -47 -46 -66 -58 -41 -25
-58 -64 -46 -105 5 -16 10 -22 10 -12 1 22 20 21 51 -3 14 -11 28 -20 32 -20
4 0 24 -12 45 -26 21 -15 29 -24 18 -21 -45 12 -137 28 -141 25 -2 -3 0 -19 6
-36 5 -18 8 -85 8 -150 -1 -91 4 -135 21 -202 26 -97 28 -103 44 -93 11 7 106
5 119 -3 10 -6 -24 -44 -39 -44 -7 0 -13 -4 -13 -9 0 -16 -46 -61 -54 -53 -4
4 -6 1 -4 -7 2 -8 -5 -17 -15 -19 -10 -2 -17 0 -16 5 1 4 0 26 -1 48 -2 39 -3
39 -10 10 -4 -16 -8 -45 -9 -64 -1 -27 -20 -57 -91 -145 -97 -121 -121 -143
-283 -260 -61 -45 -114 -91 -123 -108 l-16 -30 -31 29 c-18 17 -47 40 -64 52
-18 12 -33 28 -33 35 0 8 16 48 35 90 19 43 35 83 35 90 0 18 -202 96 -215 84
-7 -6 -4 -14 8 -22 17 -14 25 -32 8 -21 -5 3 -13 0 -17 -7 -4 -7 -4 -10 1 -6
10 10 35 -10 35 -27 0 -8 -14 -16 -31 -20 -19 -4 -29 -12 -26 -20 3 -7 9 -50
13 -96 7 -84 7 -84 60 -144 30 -33 54 -64 54 -69 0 -7 -101 0 -106 7 -2 4 -63
273 -67 300 -2 15 -1 27 3 27 3 0 14 16 23 35 20 42 10 45 -26 7 l-27 -28 31
-144 c45 -213 45 -202 6 -325 l-35 -110 42 -38 c76 -70 81 -72 129 -54 23 8
68 23 99 31 31 9 60 21 63 27 4 6 18 15 32 20 14 5 27 18 30 30 3 11 23 29 45
40 25 13 38 25 34 34 -5 13 38 30 60 23 5 -1 44 8 86 21 73 23 81 29 171 120
108 109 268 326 259 350 -3 8 -27 54 -54 101 l-48 85 37 30 c41 33 98 87 74
69 -9 -6 -36 -24 -61 -39 l-45 -27 55 58 c30 32 61 63 69 69 10 9 12 22 7 46
-4 19 -10 57 -13 84 -4 48 -3 51 24 62 l28 11 -27 1 c-36 1 -39 31 -3 31 29 0
28 -4 14 95 -9 58 -15 75 -28 75 -9 0 -24 12 -35 26 l-19 26 42 42 c32 32 44
38 50 27 6 -10 12 -4 20 22 12 34 10 40 -41 129 -30 51 -61 94 -69 95 -7 2
-23 -3 -35 -10z m62 -540 c17 -17 -15 -27 -87 -27 -74 0 -79 1 -79 21 0 21 4
21 80 17 44 -3 83 -7 86 -11z m-66 -521 c0 -13 -10 -36 -22 -52 -12 -15 -23
-35 -25 -43 -3 -21 -36 -46 -42 -30 -2 6 2 15 9 19 7 4 9 13 6 19 -4 6 6 29
23 50 17 21 31 44 31 50 0 6 5 11 10 11 6 0 10 -11 10 -24z m-86 -50 c-7 -17
-52 -41 -61 -33 -10 11 37 56 52 50 8 -2 12 -10 9 -17z m-15 -48 c-2 -2 -24
-21 -49 -43 -41 -38 -40 -30 4 22 11 13 26 23 34 23 9 0 13 -1 11 -2z m-215
-133 c3 -8 1 -15 -4 -15 -6 0 -10 7 -10 15 0 8 2 15 4 15 2 0 6 -7 10 -15z
m96 9 c0 -23 -25 -84 -36 -88 -8 -3 -11 0 -7 11 3 8 7 29 8 47 2 17 3 32 4 34
2 5 31 2 31 -4z m-115 -21 c11 -15 15 -15 29 -4 20 17 19 4 -3 -33 -11 -19
-27 -31 -45 -33 -17 -3 -25 0 -21 7 3 5 14 10 23 10 14 0 14 1 -1 13 -11 8
-15 20 -11 35 8 26 13 27 29 5z m62 -47 c-7 -13 -15 -22 -19 -20 -5 3 -8 0 -8
-7 0 -7 -3 -9 -6 -6 -4 4 -2 13 4 20 7 8 8 18 4 22 -4 5 -2 5 5 1 6 -3 14 -2
18 4 12 19 13 10 2 -14z m-383 -191 c-4 -8 -14 -15 -23 -15 -14 0 -14 -2 -1
-10 8 -5 10 -10 4 -10 -21 0 -24 14 -7 32 20 22 35 24 27 3z m-251 -67 c-22
-24 -30 -14 -13 17 10 18 16 22 21 13 5 -7 1 -20 -8 -30z"/>
<path d="M3517 8018 c-23 -22 -85 -174 -74 -184 15 -15 112 -84 118 -84 14 0
140 82 137 89 -2 4 -18 44 -37 90 -29 71 -39 85 -67 97 -44 18 -49 18 -77 -8z
m53 -72 c0 -2 -7 -7 -16 -10 -8 -3 -12 -2 -9 4 6 10 25 14 25 6z m-25 -65 c-2
-9 -4 -19 -4 -23 -1 -5 -5 -8 -11 -8 -5 0 -8 10 -6 23 3 12 5 29 5 37 1 12 3
13 10 1 5 -7 7 -21 6 -30z m42 -11 c2 -13 -3 -20 -15 -21 -15 -1 -15 -2 0 -6
21 -5 32 -32 15 -38 -33 -13 -61 -9 -65 7 -2 13 1 16 12 12 11 -4 16 -1 16 10
0 9 6 19 14 22 8 3 12 14 8 27 -3 12 -1 19 3 14 5 -4 10 -16 12 -27z"/>
<path d="M3181 7654 c0 -11 3 -14 6 -6 3 7 2 16 -1 19 -3 4 -6 -2 -5 -13z"/>
<path d="M2376 7295 c-3 -8 -1 -15 4 -15 6 0 10 7 10 15 0 8 -2 15 -4 15 -2 0
-6 -7 -10 -15z"/>
<path d="M1999 5377 c-92 -56 -181 -123 -265 -200 -51 -47 -53 -48 -64 -27 -6
12 -51 67 -100 124 -97 114 -102 116 -236 116 -52 0 -55 -1 -79 -41 -37 -58
-42 -74 -22 -66 21 8 32 -10 18 -27 -6 -7 -9 -15 -7 -17 2 -2 -3 -31 -10 -64
l-14 -60 5 59 c5 49 3 57 -9 53 -12 -5 -13 -1 -6 21 10 26 9 26 -6 7 -8 -11
-27 -41 -40 -68 l-24 -47 70 -106 c68 -100 146 -262 185 -384 9 -30 33 -94 52
-142 l35 -87 -37 -71 c-24 -49 -34 -78 -29 -93 4 -11 39 -73 79 -136 88 -142
98 -160 101 -189 2 -19 0 -21 -11 -12 -9 7 -15 8 -19 1 -9 -14 -27 -6 -126 53
-46 28 -133 71 -192 96 l-108 47 -90 -16 c-88 -15 -90 -15 -157 8 -85 30 -106
49 -149 133 -25 50 -47 77 -91 111 l-58 44 -70 -9 c-121 -15 -118 -13 -110
-60 5 -29 4 -39 -4 -34 -6 4 -11 3 -11 -2 0 -6 -7 -12 -15 -16 -13 -5 -14 -2
-4 17 14 27 3 16 -42 -43 -18 -25 -39 -51 -46 -58 -7 -8 -17 -21 -22 -31 -14
-25 -189 -58 -236 -44 l-35 11 0 -98 c0 -59 4 -101 11 -105 6 -4 8 -14 4 -23
-3 -9 -3 -13 1 -9 4 4 13 2 21 -4 10 -9 17 -8 30 2 16 13 17 12 4 -3 -11 -15
-11 -21 -1 -33 19 -23 40 -18 40 9 0 13 6 27 13 30 6 3 1 3 -12 0 -14 -4 -21
-2 -17 4 3 5 17 12 31 14 13 3 22 2 20 -3 -3 -4 -1 -10 5 -14 5 -3 10 -1 10 4
0 6 5 11 10 11 6 0 10 -4 10 -8 0 -14 -36 -52 -49 -52 -6 0 -11 -4 -11 -10 0
-5 -21 -32 -46 -59 -43 -47 -48 -49 -60 -33 -12 16 -13 16 -14 -4 0 -11 5 -25
11 -31 8 -8 8 -13 0 -17 -6 -4 -11 -17 -11 -28 0 -20 1 -20 18 -5 20 18 118
35 234 39 69 3 75 2 53 -10 -14 -7 -29 -10 -34 -8 -16 10 -76 -22 -109 -58
-17 -19 -32 -38 -32 -40 0 -3 24 -6 52 -8 l53 -3 -67 -33 c-51 -25 -68 -38
-68 -54 0 -15 4 -18 17 -14 21 8 114 -24 121 -42 6 -18 -18 -33 -40 -26 -13 4
-16 1 -12 -10 5 -14 31 -21 57 -17 4 1 3 -7 -3 -18 -12 -24 -13 -34 -1 -26 5
3 3 -8 -5 -25 -9 -16 -13 -34 -9 -40 3 -5 0 -10 -7 -10 -7 0 -21 -7 -31 -14
-16 -12 -15 -13 9 -13 14 0 28 6 31 13 7 18 23 8 22 -14 0 -12 -2 -13 -6 -4
-8 21 -32 -20 -37 -65 -3 -21 -2 -30 0 -20 7 22 26 22 22 0 -2 -12 6 -19 26
-23 16 -3 31 -11 34 -19 3 -10 0 -12 -12 -8 -12 5 -15 3 -10 -6 4 -6 -3 -2
-15 11 -12 12 -27 22 -34 22 -7 0 -4 -7 6 -14 15 -11 15 -15 3 -19 -8 -3 -17
-2 -20 4 -2 5 -3 4 -2 -3 2 -7 -1 -21 -6 -30 -5 -10 -5 -18 -1 -18 14 1 43 27
37 33 -3 3 3 3 15 0 21 -5 32 -27 28 -53 -4 -22 -39 -60 -56 -60 -8 0 -11 -3
-7 -7 4 -5 13 -8 19 -8 7 0 12 -7 12 -15 0 -8 5 -19 10 -23 6 -5 4 -7 -5 -4
-8 2 -14 13 -12 23 2 18 2 18 -12 -1 -8 -11 -21 -27 -29 -35 -8 -8 -17 -22
-21 -30 -6 -12 -5 -12 6 1 7 9 19 14 26 12 6 -3 12 0 12 6 0 6 12 11 26 11 21
0 25 4 21 20 -7 28 2 25 13 -5 5 -14 17 -25 25 -25 10 0 13 -5 9 -12 -4 -7 -3
-8 5 -4 8 6 9 12 2 20 -6 7 -8 16 -4 19 3 4 -1 7 -10 7 -9 0 -17 6 -17 13 1
15 30 55 30 40 0 -6 8 -9 19 -6 10 3 21 1 24 -4 3 -4 -6 -9 -20 -10 -14 0 -30
-7 -37 -13 -8 -10 -7 -11 8 -6 15 5 17 2 13 -13 -3 -12 1 -22 10 -25 8 -3 12
-2 9 3 -3 5 1 12 10 15 8 3 12 10 9 16 -3 5 -1 10 4 10 6 0 11 9 11 20 0 11
-5 20 -11 20 -5 0 -7 5 -4 10 3 6 1 10 -4 10 -6 0 -11 -6 -11 -12 0 -9 -3 -10
-8 -2 -4 6 -14 14 -22 17 -8 3 13 5 48 5 34 -1 62 -4 62 -8 0 -4 9 -10 20 -13
11 -3 20 -1 20 4 0 5 -5 9 -12 9 -6 0 -8 3 -5 6 9 9 38 -16 31 -27 -3 -5 -14
-9 -24 -9 -25 0 -35 -17 -20 -35 9 -11 9 -15 1 -15 -6 0 -10 -3 -10 -7 1 -5
-2 -22 -6 -39 -6 -29 -10 -31 -37 -27 -20 3 -28 1 -23 -6 3 -6 19 -11 35 -11
16 0 41 -5 57 -12 15 -6 31 -11 36 -10 11 3 8 -13 -5 -26 -8 -8 -9 -12 -1 -12
6 0 16 12 21 28 8 21 11 23 11 7 1 -16 3 -17 10 -5 12 18 4 31 -17 29 -10 -1
-21 0 -27 1 -5 1 -19 3 -29 4 -11 0 -21 8 -23 16 -3 9 -1 11 4 5 10 -13 31
-13 41 0 4 6 17 11 30 13 17 3 25 -4 35 -26 10 -24 16 -28 29 -21 10 6 15 17
12 27 -5 14 -4 14 4 2 6 -8 8 -18 6 -22 -3 -4 -1 -8 5 -8 6 0 8 -7 5 -15 -4
-8 -10 -15 -16 -15 -5 0 -6 5 -3 10 3 6 1 10 -4 10 -6 0 -11 -6 -11 -13 0 -25
-21 -37 -44 -25 -18 9 -19 9 -9 -3 9 -12 5 -14 -23 -16 -30 -2 -34 1 -29 18 7
20 -18 28 -30 9 -4 -6 1 -7 12 -4 15 5 15 4 3 -5 -17 -12 -54 15 -43 32 4 6 0
8 -10 4 -11 -4 -22 2 -32 17 -13 19 -23 23 -58 21 -23 -1 -50 2 -59 7 -12 5
-18 5 -18 -2 0 -5 8 -10 18 -10 14 0 15 -2 2 -10 -9 -6 -11 -10 -3 -10 7 0 10
-7 6 -15 -3 -9 -8 -13 -11 -11 -3 3 -11 1 -19 -6 -11 -8 -12 -7 -8 5 5 12 -4
16 -44 22 -27 4 -59 4 -71 0 -13 -4 -33 1 -54 14 -18 12 -36 21 -40 21 -3 0
-6 -322 -6 -715 l0 -715 24 0 c13 0 43 -15 67 -34 25 -18 69 -44 99 -56 53
-22 80 -40 145 -93 l30 -25 -85 -1 -85 0 -69 63 c-51 48 -67 68 -62 82 8 27
-8 46 -35 42 l-24 -3 -3 -692 -2 -693 5120 0 5120 0 0 1045 c0 575 -2 1045 -4
1045 -2 0 -23 -9 -47 -19 -24 -11 -87 -31 -139 -46 -99 -28 -112 -33 -220 -85
-36 -17 -116 -49 -177 -70 l-113 -38 -15 51 c-8 28 -15 52 -15 55 0 2 35 0 79
-3 91 -8 111 -3 261 65 58 27 134 56 169 65 36 9 100 28 143 41 l78 25 0 216
0 216 -32 -9 c-67 -17 -248 -6 -368 22 -23 5 -21 7 22 26 26 11 45 24 42 29
-3 5 10 9 28 10 63 1 116 31 142 79 26 49 38 54 46 18 9 -34 36 -34 54 0 8 16
13 32 10 34 -2 3 9 8 26 11 24 5 30 12 30 32 0 20 -5 25 -26 25 -15 0 -32 7
-39 17 -9 12 -40 18 -130 26 -76 6 -119 6 -124 0 -3 -5 -26 -18 -51 -29 -25
-10 -87 -40 -138 -67 -52 -27 -95 -47 -97 -45 -2 2 18 19 46 37 27 19 48 35
46 37 -1 1 -35 -7 -76 -19 l-73 -22 -33 37 c-31 37 -32 37 -56 20 -13 -9 -53
-31 -89 -49 -51 -25 -68 -29 -84 -21 -12 7 -58 9 -120 5 -79 -4 -105 -2 -120
9 -18 13 -17 14 20 14 l39 1 -32 14 c-18 8 -33 16 -33 17 0 8 40 6 45 -3 4 -5
18 -9 33 -9 l27 1 -30 13 c-41 18 -115 30 -95 16 27 -19 -33 -4 -92 23 -58 27
-214 77 -238 77 -7 0 -24 10 -37 22 -18 17 -26 19 -32 10 -6 -10 -11 -10 -21
3 -20 24 -33 18 -28 -15 4 -28 2 -30 -31 -35 -20 -4 -46 -8 -58 -11 -13 -2
-23 0 -23 6 0 6 -10 15 -22 20 -18 7 -19 9 -5 9 13 1 17 10 17 35 0 70 -10 93
-42 100 -17 3 -36 2 -42 -3 -9 -7 -102 -41 -113 -41 -2 0 -3 9 -3 20 0 26 -5
25 -43 -4 -18 -14 -44 -28 -60 -31 -21 -6 -25 -10 -17 -20 16 -20 -64 -86
-152 -124 -42 -19 -75 -37 -73 -41 2 -4 -13 -17 -35 -31 -37 -23 -37 -24 -13
-29 l24 -5 -35 -70 c-45 -89 -47 -121 -6 -130 35 -8 39 -22 8 -27 -13 -2 -23
-7 -24 -13 0 -5 -4 -18 -9 -28 -11 -25 3 -34 18 -12 13 16 14 16 20 1 8 -20
26 -20 52 0 17 13 18 16 5 24 -13 8 -12 10 3 10 10 0 15 5 12 10 -10 17 5 32
20 20 9 -7 15 -7 19 -1 8 12 29 8 78 -12 31 -13 35 -19 31 -41 -5 -26 10 -36
22 -16 3 6 2 10 -4 10 -5 0 -9 9 -8 20 3 42 79 38 110 -5 l18 -25 -51 1 c-28
1 -57 -4 -66 -12 -9 -7 -41 -13 -74 -14 -32 0 -62 -3 -66 -8 -4 -4 -12 -7 -18
-7 -6 0 0 7 12 16 12 8 20 19 17 24 -10 17 -53 -31 -50 -55 1 -16 -2 -22 -11
-18 -8 3 -14 0 -14 -6 0 -6 -5 -11 -12 -11 -6 0 -1 11 11 24 13 14 18 26 12
30 -5 4 -12 2 -16 -4 -10 -16 -25 -12 -19 5 4 8 2 15 -3 15 -6 0 -9 -16 -8
-35 2 -19 -1 -35 -6 -35 -5 0 -9 -9 -9 -21 0 -18 -4 -20 -27 -15 -20 5 -24 4
-14 -3 12 -8 9 -11 -12 -16 -42 -11 -55 7 -52 73 1 50 -11 134 -14 91 -1 -20
-35 -31 -50 -16 -16 16 -41 17 -41 2 0 -8 -5 -17 -12 -21 -7 -4 -8 -3 -4 4 5
8 -1 12 -14 12 -14 0 -19 -4 -14 -12 5 -9 2 -9 -9 1 -20 16 -22 31 -4 31 7 0
14 11 15 25 1 14 -3 25 -9 25 -5 0 -8 -4 -5 -9 3 -5 -2 -15 -12 -22 -15 -13
-16 -12 -3 4 9 12 10 17 2 17 -7 0 -9 5 -5 11 4 8 -1 9 -17 5 -17 -5 -19 -4
-9 2 8 5 39 12 69 16 58 8 80 16 105 42 23 23 20 70 -6 96 -13 13 -22 26 -21
30 2 5 0 8 -5 8 -4 0 -18 9 -31 19 l-24 19 93 22 c61 14 104 30 123 46 l29 25
-58 -7 c-33 -4 -68 -6 -79 -6 -10 1 -24 -3 -30 -8 -6 -5 -26 -8 -44 -8 -18 1
-36 -3 -39 -9 -6 -9 -80 -44 -209 -99 -49 -21 -40 -8 15 20 61 32 51 32 -92
-4 -66 -17 -127 -30 -135 -30 -20 0 -171 -92 -166 -101 7 -11 -81 -40 -100
-33 -11 5 -16 3 -12 -2 8 -14 -4 -29 -38 -47 -29 -16 -29 -16 38 -10 l67 6 0
-27 c0 -19 6 -29 20 -33 11 -3 20 -11 20 -18 0 -9 -26 -13 -97 -14 -54 -1
-124 -4 -155 -7 -42 -5 -58 -3 -58 5 0 7 4 10 9 7 11 -7 33 18 30 36 -3 27 2
37 23 44 18 5 19 8 6 15 -10 5 -43 3 -85 -6 -37 -7 -85 -17 -107 -20 -21 -4
-35 -9 -32 -13 8 -8 -94 -71 -115 -72 -17 0 -52 -33 -44 -42 6 -6 -90 -98
-103 -98 -5 0 -15 -7 -22 -15 -10 -12 -9 -15 7 -15 10 0 24 5 31 12 7 7 12 9
12 4 0 -4 7 0 16 9 9 9 18 14 21 11 9 -9 -36 -45 -64 -49 -15 -3 24 -2 87 1
100 4 118 2 133 -12 13 -13 25 -16 50 -11 48 11 30 -1 -47 -30 -50 -19 -72
-23 -86 -15 -10 5 -38 10 -62 10 -45 0 -106 32 -140 74 -25 30 -22 44 11 51
18 4 31 14 35 28 8 30 3 31 -43 8 -22 -12 -42 -21 -44 -21 -2 0 -26 28 -54 63
-28 34 -61 73 -72 86 l-21 25 -33 -32 c-56 -54 -90 -38 -42 20 l25 30 -62 76
c-34 42 -62 78 -62 79 -3 5 -173 -21 -182 -29 -7 -5 -20 -38 -29 -73 -17 -63
-17 -64 4 -98 14 -23 38 -42 71 -56 34 -14 52 -29 55 -44 4 -13 -3 -65 -14
-117 -11 -52 -20 -92 -20 -88 -1 4 -16 1 -34 -7 -30 -12 -42 -12 -108 5 -87
23 -114 25 -78 5 42 -23 170 -55 194 -49 28 7 39 -9 25 -36 -14 -26 -54 -26
-120 0 -69 27 -84 24 -30 -6 44 -25 44 -25 11 -20 -18 3 -79 13 -135 22 -109
17 -111 18 -102 32 4 6 23 5 52 -4 51 -15 64 -12 64 16 0 15 -10 21 -48 26
-46 6 -48 7 -44 34 2 18 12 31 26 35 l21 8 -22 4 c-15 3 -25 14 -29 31 -4 15
-10 32 -14 37 -4 6 -11 25 -15 43 -5 27 -19 41 -63 69 -32 19 -96 62 -144 95
-50 33 -88 53 -88 46 -1 -8 -6 -5 -16 7 -8 11 -12 25 -10 32 11 27 -7 42 -61
53 -30 7 -78 23 -106 36 -29 13 -57 24 -63 24 -11 0 -134 -184 -134 -200 0 -4
23 -28 50 -53 28 -25 50 -49 50 -54 0 -20 42 -48 68 -45 21 2 42 -11 97 -62
39 -36 66 -66 60 -66 -38 1 -104 26 -141 54 -25 19 -66 40 -93 47 -31 8 -51
19 -57 33 -11 25 -44 33 -135 35 -67 1 -129 22 -129 44 1 34 15 56 46 71 45
21 44 21 44 -16 l0 -32 22 21 c28 29 21 36 -91 98 -50 28 -93 58 -97 69 -3 10
-37 51 -76 92 -68 72 -77 94 -37 94 19 0 18 4 -12 59 -30 55 -38 61 -128 108
-106 56 -196 78 -360 90 -78 5 -102 11 -150 37 -31 17 -74 38 -96 47 l-40 15
-91 -44 -91 -45 -40 32 c-43 34 -53 66 -53 167 0 43 -1 44 -58 73 l-58 29 -50
-38 c-32 -25 -63 -62 -89 -109 -22 -39 -43 -71 -47 -71 -4 0 -50 23 -101 50
-52 28 -100 50 -108 50 -8 0 -50 -22 -94 -50 -44 -27 -86 -50 -92 -50 -7 0
-26 27 -43 60 -17 33 -46 81 -66 106 l-34 46 32 38 c18 21 40 41 48 44 17 7
50 60 50 81 0 7 -9 38 -21 68 -20 53 -23 56 -69 67 -36 9 -55 21 -82 53 -118
142 -132 163 -174 269 -24 60 -44 115 -44 122 0 12 -50 46 -70 46 -6 0 -35
-18 -63 -40 l-52 -39 3 -103 c3 -114 -7 -89 110 -258 23 -33 34 -61 38 -105
l7 -59 -46 39 c-35 30 -61 67 -101 145 -50 98 -57 118 -81 260 -23 130 -32
164 -60 210 l-33 55 8 98 9 98 -34 72 c-20 43 -34 64 -34 51 -1 -12 -10 -32
-21 -45 -16 -20 -19 -21 -20 -6 0 9 -5 17 -11 17 -6 0 -8 -9 -4 -20 4 -11 2
-20 -4 -20 -6 0 -10 3 -10 8 3 18 -3 21 -26 12 -28 -11 -30 -6 -14 39 12 33
26 40 35 16 4 -8 11 -15 17 -15 6 0 7 3 4 6 -11 12 13 43 28 38 10 -4 15 0 15
15 0 15 -7 21 -22 22 -13 0 -33 2 -45 5 -35 6 -37 6 -50 5 -7 0 -10 -8 -6 -17
7 -18 4 -18 -161 2 l-49 6 6 56 c7 66 24 91 23 32 -2 -40 13 -70 15 -33 4 71
2 89 -11 100 -13 11 -12 14 8 19 12 3 23 13 23 20 1 8 2 20 3 27 2 24 57 3
107 -42 18 -17 41 -33 49 -36 8 -3 24 -21 34 -40 37 -69 27 -73 188 73 32 28
63 52 70 52 7 0 33 10 58 22 25 12 48 22 52 22 3 1 10 4 14 9 4 4 17 7 29 7
27 0 60 34 49 52 -4 7 -4 10 1 6 13 -12 37 30 30 53 -9 28 -29 19 -35 -17 l-6
-29 -7 25 c-4 14 -7 41 -7 61 0 34 -3 37 -40 47 -22 5 -37 6 -34 1 6 -11 -28
-12 -41 -1 -6 4 18 -21 53 -56 34 -36 62 -68 62 -73 0 -5 0 -12 0 -16 0 -4
-16 -8 -35 -9 -20 0 -31 2 -24 6 8 5 5 10 -10 15 -11 3 -21 11 -21 16 0 5 -7
9 -16 9 -8 0 -12 5 -9 10 3 6 4 10 0 10 -3 0 -9 -10 -14 -23 -9 -22 -18 -25
-91 -30 -22 -2 -25 3 -30 40 -6 40 -5 42 24 47 22 5 27 9 17 15 -9 6 -10 11
-2 15 6 4 11 16 11 26 0 10 5 22 10 25 6 4 10 3 9 -2 -3 -18 1 -33 10 -33 5 0
7 9 4 19 -3 13 1 21 14 25 29 9 116 9 137 0 14 -5 17 -4 12 4 -4 7 -11 12 -17
12 -5 0 -30 13 -54 28 l-46 29 41 12 c41 12 60 9 60 -11 0 -5 -7 -8 -15 -5 -8
4 -17 1 -21 -5 -4 -6 -3 -8 3 -5 5 3 16 -3 23 -14 21 -29 40 -24 40 11 0 29 1
30 50 30 28 0 50 3 50 7 0 18 -75 113 -89 113 -9 -1 -55 -24 -102 -53z m-586
-168 c26 -6 47 -12 47 -14 0 -1 -5 -16 -11 -34 -11 -31 -11 -31 -83 -31 l-72
0 6 53 c4 28 8 53 9 55 0 1 1 10 1 19 0 13 5 12 28 -9 15 -15 48 -32 75 -39z
m81 45 c20 -8 11 -24 -14 -24 -13 0 -17 5 -14 15 7 17 7 17 28 9z m-61 -170
c-6 -17 -10 -53 -12 -117 -1 -23 -5 -36 -11 -32 -6 4 -8 11 -4 16 3 5 0 8 -8
7 -20 -5 -11 80 13 113 23 32 32 37 22 13z m141 -684 c-5 -30 -3 -39 12 -45
22 -9 30 -12 44 -14 7 -1 7 -8 -1 -22 -8 -15 -8 -19 0 -15 6 4 11 2 11 -3 0
-22 -30 -10 -31 12 -1 17 -2 18 -6 4 -2 -9 -9 -15 -14 -12 -5 4 -9 -1 -9 -9 0
-19 -17 -21 -23 -3 -2 6 -11 -11 -21 -40 -21 -62 -38 -80 -56 -58 -11 13 -11
27 -1 73 7 31 19 66 26 78 8 12 16 36 20 55 5 27 11 34 31 35 22 2 23 -1 18
-36z m-1004 -59 c0 -3 -7 -12 -15 -21 -14 -16 -14 -17 8 -13 18 4 23 10 20 24
-4 14 0 19 13 19 16 0 17 -2 4 -10 -15 -9 -13 -11 12 -14 7 0 13 -13 13 -27 1
-14 5 -31 9 -37 10 -17 -2 -15 -20 2 -8 8 -11 22 -8 30 3 9 1 16 -5 16 -6 0
-11 -4 -11 -9 0 -4 -26 -7 -57 -5 -32 2 -69 4 -83 5 -17 1 -19 3 -7 6 9 2 17
9 17 14 0 6 -4 8 -8 5 -4 -2 -14 0 -22 5 -24 15 33 3 58 -12 17 -11 24 -11 34
-1 9 9 8 12 -5 12 -9 0 -17 4 -17 8 0 5 16 8 35 8 19 -1 35 -3 35 -5z m1046
-64 c10 4 12 0 8 -11 -7 -19 -24 -21 -24 -3 -1 6 -17 -6 -36 -28 l-36 -40 19
37 c10 21 24 38 31 38 6 0 12 6 13 13 0 9 2 9 5 0 3 -7 12 -9 20 -6z m64 -143
c0 -8 -4 -12 -10 -9 -5 3 -10 10 -10 16 0 5 5 9 10 9 6 0 10 -7 10 -16z m328
-130 c2 -77 0 -96 -9 -87 -8 8 -13 46 -13 103 -1 124 18 111 22 -16z m50 77
c-7 -9 -14 -18 -15 -20 -2 -3 -2 7 -1 21 1 17 7 24 15 21 11 -4 11 -9 1 -22z
m26 -32 c-6 -11 -24 -2 -24 11 0 5 7 7 15 4 8 -4 12 -10 9 -15z m-1758 -22 c8
3 14 0 14 -7 0 -6 -4 -8 -10 -5 -5 3 -10 0 -10 -7 0 -10 -3 -9 -10 2 -9 15
-25 7 -25 -13 0 -7 -5 -12 -12 -12 -6 0 -15 -3 -19 -7 -4 -5 -11 -8 -16 -8 -4
0 9 15 30 34 20 19 38 31 40 26 2 -5 10 -6 18 -3z m184 -3 c0 -8 -5 -12 -10
-9 -6 4 -8 11 -5 16 9 14 15 11 15 -7z m-139 -8 c5 3 9 1 9 -5 0 -5 -4 -13
-10 -16 -5 -3 -10 -4 -10 -1 0 2 -2 10 -3 18 -2 7 -2 10 0 5 3 -4 9 -5 14 -1z
m79 5 c0 -13 -39 -21 -47 -9 -3 6 -1 8 5 4 6 -3 13 -2 17 4 8 12 25 13 25 1z
m455 -11 c3 -6 -1 -7 -9 -4 -18 7 -21 14 -7 14 6 0 13 -4 16 -10z m5 -32 l81
-31 -30 -13 c-27 -11 -39 -9 -110 19 -44 18 -81 35 -81 39 0 4 10 9 23 11 12
2 25 5 29 6 4 0 43 -13 88 -31z m888 -17 c5 -70 -2 -77 -48 -44 -22 15 -40 36
-40 46 0 9 -1 20 -2 24 -3 8 48 22 72 19 10 -1 16 -15 18 -45z m-1381 26 c11
4 14 2 9 -5 -4 -7 -16 -12 -26 -12 -14 0 -18 5 -13 17 4 10 8 12 10 6 3 -7 11
-9 20 -6z m1647 -12 c3 -8 1 -15 -4 -15 -6 0 -10 7 -10 15 0 8 2 15 4 15 2 0
6 -7 10 -15z m-1705 -9 c-2 -2 -17 -6 -34 -10 -22 -5 -26 -4 -15 4 14 9 59 15
49 6z m1441 -129 c0 -19 -3 -36 -6 -40 -11 -11 -35 5 -49 34 -14 26 -14 28 8
32 45 9 47 7 47 -26z m-82 -31 c1 -30 -2 -57 -8 -61 -5 -3 -10 -2 -10 4 0 5
-10 11 -22 13 -14 2 -24 13 -29 32 -9 34 -2 53 14 37 18 -18 37 -13 37 9 0 11
3 20 8 20 4 0 8 -25 10 -54z m-618 3 c0 -6 -4 -7 -10 -4 -5 3 -10 11 -10 16 0
6 5 7 10 4 6 -3 10 -11 10 -16z m1112 -20 c-21 -8 -78 -6 -87 2 -2 3 22 5 53
5 41 1 50 -1 34 -7z m-1677 -104 c-9 -5 -33 -20 -51 -32 -19 -12 -34 -19 -34
-16 0 4 -7 -2 -15 -13 -14 -17 -14 -15 0 13 17 36 107 90 114 70 2 -6 -4 -16
-14 -22z m175 -25 c0 -4 -13 -5 -30 -2 -29 4 -37 12 -24 25 7 7 54 -13 54 -23z
m107 -6 c38 -15 72 -30 76 -34 4 -4 0 -26 -9 -49 -16 -40 -19 -42 -47 -37 -16
3 -50 6 -76 6 -41 1 -44 2 -28 14 10 8 49 22 87 32 39 10 70 21 70 24 0 3 -38
15 -84 25 -66 15 -82 22 -74 32 13 16 6 17 85 -13z m-421 -39 c-3 -8 13 -11
42 -11 26 1 48 -3 50 -9 3 -8 -154 -64 -181 -65 -17 0 5 20 38 36 19 9 32 20
29 25 -3 5 -9 7 -14 4 -11 -7 -23 12 -15 25 8 13 57 8 51 -5z m-55 -32 c13
-16 12 -17 -3 -4 -10 7 -18 15 -18 17 0 8 8 3 21 -13z m1869 -43 c0 -33 -3
-60 -6 -60 -11 0 -74 41 -74 48 0 17 47 72 63 72 14 0 17 -9 17 -60z m-1085
-3 c65 -17 66 -39 2 -41 -29 -1 -47 3 -47 11 0 6 -15 21 -32 32 l-33 22 30 -5
c17 -3 53 -11 80 -19z m-235 -27 c12 -8 10 -10 -10 -11 -14 -1 -35 -3 -47 -4
-33 -3 -28 13 5 18 15 2 29 5 32 5 3 1 12 -3 20 -8z m-383 -6 c-3 -3 -12 -4
-19 -1 -8 3 -5 6 6 6 11 1 17 -2 13 -5z m509 -49 c20 -8 33 -19 29 -25 -7 -11
-24 -4 -60 24 -25 20 -14 20 31 1z m-176 -25 c114 -21 181 -37 165 -40 -5 -1
-26 -4 -45 -6 -83 -8 -120 -16 -120 -25 0 -5 -6 -9 -14 -9 -20 0 -31 -19 -18
-32 8 -8 8 -17 0 -32 -9 -17 -8 -19 3 -8 16 15 29 16 29 1 0 -5 -3 -8 -8 -5
-16 9 -37 -20 -38 -54 -2 -62 -4 -71 -14 -65 -5 3 -10 1 -10 -4 0 -19 68 -13
79 7 16 27 13 7 -9 -52 -28 -73 -49 -81 -183 -72 -56 4 -133 7 -172 6 -48 0
-65 3 -55 9 8 5 17 8 21 6 3 -3 18 6 32 19 14 13 28 22 31 19 3 -3 19 5 36 17
33 23 31 44 -3 35 -17 -5 -19 -4 -7 4 12 8 9 12 -15 22 -17 7 -34 11 -39 10
-5 -1 -4 4 2 11 9 11 5 14 -16 15 -15 1 -21 -1 -14 -4 17 -7 16 -47 -2 -40 -9
4 -20 -6 -29 -24 -11 -23 -16 -27 -20 -15 -4 9 -1 16 5 16 7 0 7 5 -2 14 -17
21 -37 9 -42 -25 -3 -20 0 -29 9 -29 7 0 13 -5 13 -10 0 -7 -6 -7 -20 0 -11 6
-17 16 -14 25 4 9 1 22 -5 29 -9 10 -9 16 -1 21 8 5 7 11 -1 21 -10 12 -9 18
6 32 13 11 15 12 9 2 -8 -11 -6 -20 8 -32 10 -10 18 -15 18 -11 0 3 9 -2 20
-12 17 -16 20 -16 20 -2 0 8 6 17 13 20 9 3 9 7 -1 19 -10 13 -8 15 15 16 51
0 59 3 35 13 -13 5 -29 6 -35 2 -7 -4 -8 0 -4 11 5 12 3 16 -5 13 -7 -2 -12
-9 -11 -15 2 -6 -4 -9 -12 -6 -8 4 -15 10 -15 16 0 5 6 6 13 2 7 -5 6 0 -3 10
-14 18 -15 18 -21 -5 -4 -13 -7 -17 -8 -9 -1 17 -37 24 -46 10 -3 -5 -12 -7
-20 -3 -11 4 -13 1 -9 -10 6 -16 34 -12 34 4 0 5 6 9 13 9 6 -1 2 -9 -11 -20
-14 -12 -24 -31 -24 -49 -1 -21 -8 -32 -27 -41 -24 -11 -24 -13 -8 -24 9 -7
17 -17 17 -21 0 -5 -9 0 -20 10 -11 10 -17 22 -14 27 3 5 0 16 -8 25 -11 14
-11 16 1 8 11 -6 13 -4 7 11 -5 10 -9 26 -11 34 -1 8 0 9 2 3 3 -7 9 -13 14
-13 6 0 7 -4 4 -10 -3 -5 -1 -10 6 -10 8 0 8 -4 -1 -15 -13 -15 -3 -20 15 -7
13 9 16 42 4 42 -5 0 -5 8 -2 18 6 14 4 15 -9 4 -13 -10 -17 -10 -21 2 -3 7 0
20 6 27 10 11 9 11 -5 0 -14 -11 -20 -11 -32 1 -15 16 -10 31 14 36 8 2 35 16
60 31 25 15 63 35 85 46 22 10 34 20 28 22 -7 3 -13 9 -13 14 0 5 12 4 27 -2
19 -7 36 -6 62 4 20 8 42 12 50 9 8 -3 20 3 28 14 8 11 13 13 13 5 0 -11 3
-11 15 -1 9 7 18 10 22 6 3 -3 2 -6 -4 -6 -13 0 -12 -32 2 -42 6 -5 5 -8 -2
-8 -7 0 -13 -7 -13 -15 0 -12 16 -15 85 -15 104 0 110 13 25 55 -65 33 -78 51
-27 40 17 -3 79 -15 137 -25z m1133 -3 c3 -8 -1 -14 -9 -14 -15 0 -18 9 -7 20
9 9 10 9 16 -6z m-813 -18 c14 -4 18 -8 9 -8 -9 -1 -16 -8 -16 -16 0 -8 4 -12
9 -9 20 13 5 -17 -19 -38 -16 -13 -35 -32 -43 -43 -13 -17 -13 -18 0 -10 13 8
13 6 2 -8 -8 -9 -11 -21 -7 -28 6 -8 10 -8 16 2 5 8 7 1 5 -19 -1 -17 -5 -34
-9 -38 -3 -4 -5 3 -2 14 5 26 -18 35 -42 16 -17 -14 -16 -14 5 -4 12 6 22 7
22 3 0 -5 -13 -14 -30 -20 -16 -6 -30 -16 -30 -22 0 -14 37 -14 45 -1 4 6 11
8 16 4 5 -3 7 -10 4 -15 -4 -5 2 -10 12 -10 10 -1 0 -5 -22 -9 -31 -6 -42 -4
-52 9 -12 15 -18 45 -13 66 1 6 2 37 2 70 -1 67 5 98 18 90 5 -3 11 -1 14 4 3
5 15 7 25 4 10 -3 22 0 25 6 5 7 -4 9 -23 7 -30 -3 -39 3 -24 17 7 7 56 0 103
-14z m-290 -89 c-7 -4 -21 -5 -31 -3 -15 4 -17 8 -8 19 8 10 16 11 31 3 15 -8
17 -13 8 -19z m2201 3 c-8 -15 -10 -15 -11 -2 0 17 10 32 18 25 2 -3 -1 -13
-7 -23z m113 -118 c3 -8 1 -15 -4 -15 -6 0 -10 7 -10 15 0 8 2 15 4 15 2 0 6
-7 10 -15z m-2789 -5 c3 -5 2 -10 -4 -10 -5 0 -13 5 -16 10 -3 6 -2 10 4 10 5
0 13 -4 16 -10z m2145 -20 c0 -5 -7 -7 -15 -4 -8 4 -12 10 -9 15 6 11 24 2 24
-11z m-822 -2 c-2 -7 3 -12 10 -10 20 4 13 -15 -8 -21 -28 -7 -25 -25 4 -23
13 0 22 5 19 10 -3 4 5 1 18 -7 13 -8 36 -17 52 -21 30 -7 38 -40 12 -50 -8
-3 -15 -1 -15 3 0 5 6 11 13 14 6 2 -3 4 -21 4 -18 0 -28 -4 -21 -8 6 -4 8
-12 4 -18 -5 -9 -10 -9 -20 -1 -9 7 -21 7 -41 -1 -16 -6 -42 -15 -57 -20 -24
-7 -27 -6 -17 6 7 8 13 31 15 51 2 20 12 45 22 56 10 11 17 22 16 24 -7 10 -2
24 7 24 6 0 9 -6 8 -12z m-1448 -28 c0 -19 -18 -19 -23 -1 -3 14 -1 18 9 14 8
-3 14 -9 14 -13z m2278 -15 c2 -2 -27 -3 -64 -2 -54 2 -69 5 -72 18 -3 14 4
14 65 2 37 -8 69 -16 71 -18z m-2034 10 c-4 -8 -8 -15 -10 -15 -2 0 -4 7 -4
15 0 8 4 15 10 15 5 0 7 -7 4 -15z m-164 -9 c0 -11 -19 -15 -25 -6 -3 5 1 10
9 10 9 0 16 -2 16 -4z m2777 -13 c0 -7 -9 -13 -19 -13 -17 0 -24 11 -13 22 10
10 32 4 32 -9z m-490 -9 c-3 -3 -12 -4 -19 -1 -8 3 -5 6 6 6 11 1 17 -2 13 -5z
m-2294 -18 c4 -10 1 -13 -8 -9 -8 3 -12 9 -9 14 7 12 11 11 17 -5z m2351 -1
c20 -8 36 -20 36 -25 0 -6 8 -10 17 -10 9 0 13 -3 10 -7 -8 -7 -49 12 -86 39
-29 22 -24 23 23 3z m-2358 -28 c4 -3 -6 -5 -20 -3 -14 1 -29 5 -32 9 -3 3 6
4 20 3 15 -2 29 -6 32 -9z m78 5 c2 -4 -5 -9 -17 -9 -17 -2 -19 0 -7 7 18 12
18 12 24 2z m2179 -19 c-4 -11 -8 -12 -11 -5 -2 7 -8 12 -13 12 -6 0 -7 -4 -4
-10 3 -5 1 -10 -4 -10 -6 0 -11 -10 -12 -22 l0 -23 -10 24 c-12 29 4 51 37 51
18 0 22 -4 17 -17z m1201 11 c18 -7 12 -24 -10 -24 -8 0 -14 7 -14 15 0 17 2
18 24 9z m-2237 -25 c2 -16 -1 -19 -9 -11 -5 5 -7 15 -4 21 10 15 12 14 13
-10z m-1197 -10 c0 -11 -5 -17 -10 -14 -6 4 -7 12 -4 18 5 8 3 8 -7 0 -18 -18
-33 -16 -17 2 19 21 38 18 38 -6z m33 -4 c-22 -17 -30 -11 -13 10 7 8 17 12
22 9 5 -3 1 -12 -9 -19z m876 11 c24 -8 24 -9 6 -22 -10 -8 -16 -14 -12 -14 3
0 -24 -29 -59 -65 -41 -41 -64 -71 -60 -80 3 -8 -3 -19 -13 -25 -10 -5 -21
-19 -24 -30 -3 -11 -1 -18 4 -14 5 3 9 -4 9 -15 0 -20 -11 -25 -47 -24 -7 1
-13 -10 -13 -24 0 -14 4 -22 10 -18 7 4 9 -3 6 -18 -3 -15 1 -24 10 -24 7 0
11 4 8 9 -3 4 0 8 5 8 6 0 10 -11 9 -25 -2 -24 -18 -37 -18 -14 0 5 -4 7 -10
4 -5 -3 -10 -2 -10 3 0 12 -94 72 -113 72 -9 0 -19 -4 -22 -10 -12 -19 -102
-11 -141 12 -33 19 -35 23 -18 28 13 3 20 13 20 29 0 22 4 25 39 27 22 1 41 3
43 4 1 1 7 3 12 4 6 0 15 8 20 16 5 8 10 11 10 7 0 -4 9 -3 20 3 11 6 17 17
14 24 -7 18 48 48 70 40 9 -3 16 -1 16 6 0 6 -5 8 -12 4 -6 -4 -8 -3 -5 3 4 6
32 23 62 39 37 18 55 33 53 43 -3 11 10 21 42 32 48 17 51 17 89 5z m2596 4
c3 -5 1 -10 -4 -10 -6 0 -11 5 -11 10 0 6 2 10 4 10 3 0 8 -4 11 -10z m-2379
-9 c-3 -5 0 -11 7 -14 17 -6 32 -3 29 6 -1 5 2 6 8 2 6 -3 8 -10 5 -15 -3 -4
-1 -10 4 -12 5 -1 6 -26 4 -54 -5 -50 -6 -51 -24 -36 -11 9 -19 22 -19 29 0 6
-5 15 -12 19 -7 5 -8 3 -3 -6 6 -9 4 -11 -4 -6 -7 5 -10 14 -7 21 2 7 -4 21
-15 31 -24 21 -24 31 -1 37 29 8 33 7 28 -2z m6793 -32 c-8 -5 -23 -9 -34 -9
-17 0 -15 4 10 20 19 12 31 16 34 9 2 -6 -3 -15 -10 -20z m-7521 -3 c-2 -18
-6 -23 -18 -17 -18 10 -40 4 -40 -11 0 -7 4 -7 13 0 10 9 19 8 33 -3 11 -7 39
-15 61 -17 27 -3 53 -15 79 -36 37 -31 38 -32 14 -33 -24 -1 -32 -2 -55 -9 -5
-1 -21 -1 -34 0 -14 1 -21 -2 -17 -9 4 -6 5 -11 2 -11 -2 0 -12 -3 -22 -7 -13
-5 -15 -3 -9 7 5 9 4 11 -4 6 -7 -4 -11 -15 -9 -24 1 -10 -1 -22 -5 -28 -4 -7
0 -14 8 -18 8 -3 14 -2 14 2 -4 23 2 42 12 36 8 -4 8 -9 0 -17 -7 -7 -7 -14 0
-23 14 -17 -37 -32 -54 -15 -14 14 -37 14 -37 0 0 -5 5 -7 10 -4 6 3 10 3 10
-2 0 -4 -21 -9 -46 -10 -33 -1 -43 2 -36 9 8 8 7 19 -3 38 -14 26 -13 27 11
22 13 -2 27 -9 31 -15 4 -6 -2 -8 -15 -5 -26 7 -20 -7 9 -22 18 -10 19 -8 15
15 -3 18 0 28 12 32 18 7 32 22 32 37 0 5 -6 3 -14 -3 -7 -6 -20 -10 -27 -8
-8 2 -11 2 -6 0 19 -11 4 -21 -20 -14 -16 4 -34 6 -42 3 -9 -3 -12 0 -8 10 4
13 -1 15 -29 12 -27 -2 -34 1 -34 15 0 11 -9 21 -21 24 -12 3 -18 3 -15 0 3
-4 0 -13 -7 -22 -11 -14 -10 -14 6 -2 9 8 20 11 24 7 8 -8 2 -13 -22 -18 -14
-2 -20 3 -22 17 -1 11 -5 31 -9 44 -5 17 -4 22 4 17 7 -4 12 -2 12 5 0 10 3
10 12 1 17 -17 27 -15 23 6 -2 9 -4 21 -4 25 -1 5 -7 5 -13 1 -7 -4 -9 -3 -5
1 15 17 54 15 68 -2 11 -15 11 -16 -1 -5 -20 17 -25 15 -26 -13 -2 -20 1 -23
11 -15 19 16 28 -16 9 -34 -12 -13 -12 -15 5 -13 12 1 17 6 13 16 -3 9 -1 12
6 7 7 -4 12 -3 12 3 0 5 -6 12 -12 15 -7 2 3 4 22 3 32 -2 35 0 32 23 -2 23
-2 24 11 6 14 -19 15 -19 42 2 15 12 34 22 41 22 8 0 14 5 14 10 0 6 2 10 5
10 3 0 4 -11 3 -24z m2672 -1 c-8 -10 5 -14 62 -19 68 -7 194 -43 184 -53 -11
-11 -172 -40 -176 -32 -3 5 -50 18 -105 29 -54 11 -100 21 -101 23 -10 10 54
55 95 67 35 9 55 2 41 -15z m-2735 5 c-3 -5 -10 -10 -16 -10 -5 0 -9 5 -9 10
0 6 7 10 16 10 8 0 12 -4 9 -10z m7711 -12 c3 -5 -1 -17 -10 -27 -9 -10 -16
-23 -16 -29 0 -13 -68 -47 -77 -38 -4 3 -20 -7 -37 -23 -31 -29 -130 -74 -140
-63 -16 15 -1 44 40 78 26 22 65 55 86 74 22 19 47 35 55 36 8 2 17 4 19 6 7
7 74 -4 80 -14z m-7783 -1 c4 3 7 1 7 -5 0 -21 -16 -21 -30 1 -12 19 -11 21 2
10 8 -7 18 -10 21 -6z m168 0 c-1 -12 -15 -9 -19 4 -3 6 1 10 8 8 6 -3 11 -8
11 -12z m918 -46 c26 -60 26 -64 4 -52 -21 11 -63 45 -46 36 9 -4 11 -1 6 11
-4 11 -8 13 -11 6 -2 -7 -10 -12 -18 -12 -9 0 -12 4 -9 10 3 5 0 7 -7 5 -8 -3
-22 1 -33 9 -20 15 -20 15 0 12 11 -2 28 0 37 5 11 6 18 5 21 -4 3 -7 6 -5 6
6 2 34 29 16 50 -32z m-1435 21 c3 -5 -1 -9 -9 -9 -8 0 -12 4 -9 9 3 4 7 8 9
8 2 0 6 -4 9 -8z m1814 -21 c-12 -19 -28 -19 -28 0 0 6 4 8 9 4 5 -3 12 -1 16
5 3 5 8 10 11 10 2 0 -1 -9 -8 -19z m2112 -21 c0 -5 -4 -10 -9 -10 -6 0 -13 5
-16 10 -3 6 1 10 9 10 9 0 16 -4 16 -10z m-3733 -34 c0 -27 -4 -33 -16 -28
-10 4 -11 7 -3 10 7 2 9 8 6 13 -5 9 1 39 9 39 2 0 4 -15 4 -34z m3703 14 c6
-11 7 -20 2 -20 -10 0 -32 21 -32 32 0 16 19 8 30 -12z m-735 -11 c46 -13 48
-12 -68 -38 l-88 -19 7 21 c15 46 68 59 149 36z m522 -9 c-1 -11 -5 -20 -9
-20 -9 0 -21 -27 -32 -72 -8 -34 14 -38 42 -10 14 14 28 17 58 13 l39 -5 -33
-6 c-18 -3 -32 -9 -32 -14 1 -5 -4 -13 -12 -17 -10 -7 -10 -9 2 -9 8 -1 2 -8
-14 -16 -20 -11 -31 -13 -39 -5 -8 8 -8 11 1 11 7 0 12 5 12 10 0 6 -5 10 -10
10 -11 0 -133 97 -138 110 -3 8 105 37 145 39 16 1 21 -4 20 -19z m-2027 -5
c0 -10 -10 -12 -34 -9 -19 2 -47 -1 -62 -6 -26 -10 -44 -6 -30 7 6 6 56 15
109 20 9 1 17 -4 17 -12z m2330 5 c0 -5 -4 -10 -10 -10 -5 0 -10 5 -10 10 0 6
5 10 10 10 6 0 10 -4 10 -10z m-2691 -41 c6 -18 11 -33 11 -34 0 -1 -10 0 -23
2 -19 4 -23 10 -19 34 6 38 17 37 31 -2z m1260 27 c-2 -2 -29 -6 -59 -9 -34
-3 -47 -2 -35 3 19 8 103 14 94 6z m218 -10 c-2 -6 -18 -11 -35 -12 -24 -1
-29 2 -22 11 13 16 62 17 57 1z m6992 -29 c-20 -4 -50 -21 -68 -38 -22 -20
-43 -29 -64 -29 -29 1 -30 2 -12 12 56 30 68 40 55 48 -9 5 -5 8 11 8 13 0 40
4 59 10 19 5 39 6 45 3 5 -3 -6 -9 -26 -14z m-8423 0 c4 -4 0 -7 -9 -7 -9 0
-18 4 -21 9 -7 10 20 9 30 -2z m-1271 -47 c3 0 3 5 0 10 -3 6 0 10 8 10 23 0
28 -12 9 -26 -14 -10 -21 -10 -39 1 -20 13 -22 13 -28 -5 -7 -22 -20 -26 -31
-8 -4 7 2 18 14 26 26 17 29 34 5 26 -15 -5 -15 -4 -4 4 11 8 21 5 38 -14 12
-13 25 -24 28 -24z m7755 46 c0 -2 -7 -7 -16 -10 -8 -3 -12 -2 -9 4 6 10 25
14 25 6z m-6670 -32 c0 -9 -11 -14 -35 -14 -42 0 -44 5 -8 24 30 15 43 13 43
-10z m-256 -36 c-3 -4 1 -5 9 -2 8 3 17 -2 20 -10 4 -9 3 -16 -1 -17 -4 0 -18
-2 -31 -5 -30 -5 -39 7 -33 45 4 27 5 28 22 13 11 -8 17 -19 14 -24z m-764 3
c7 -14 7 -22 -2 -27 -6 -4 -8 -3 -4 4 3 6 2 13 -4 17 -5 3 -10 0 -10 -8 0 -8
-9 -14 -20 -13 -20 1 -30 21 -10 21 5 0 15 6 22 13 16 16 15 16 28 -7z m190
-1 c-20 -13 -33 -13 -25 0 3 6 14 10 23 10 15 0 15 -2 2 -10z m7404 -22 c-3
-4 -15 -8 -26 -8 -21 0 -21 1 -3 20 14 15 21 17 26 8 4 -7 5 -16 3 -20z m2012
-23 c-50 -40 -61 -45 -106 -45 -28 0 -59 6 -70 13 -17 10 -22 9 -29 -2 -7 -10
-19 -12 -47 -6 l-39 7 36 19 c20 10 83 25 139 34 57 8 106 17 108 20 3 3 18 5
34 5 28 0 27 -2 -26 -45z m-8899 9 c9 -23 -18 -36 -33 -16 -9 13 -9 19 -1 24
18 12 27 9 34 -8z m7036 0 c3 -3 3 -12 0 -20 -4 -11 -9 -12 -19 -3 -8 6 -14
15 -14 20 0 10 24 12 33 3z m-48 -23 c-3 -6 -11 -11 -17 -11 -6 0 -6 6 2 15
14 17 26 13 15 -4z m-459 -35 l69 -23 -75 -7 c-66 -6 -130 -16 -210 -32 -15
-3 3 13 45 40 39 25 77 46 86 46 8 0 46 -11 85 -24z m1170 -4 c-46 -4 -77 5
-58 17 7 4 32 3 55 -3 l42 -11 -39 -3z m453 -34 c-9 -16 -14 -19 -17 -9 -2 7
2 17 9 22 20 13 21 11 8 -13z m-2166 -9 c-12 -13 -26 -18 -33 -14 -9 6 -6 12
11 21 36 20 46 17 22 -7z m267 -41 c0 -4 22 -8 49 -8 32 0 53 -5 62 -16 12
-14 14 -14 26 2 7 10 13 14 13 8 -1 -17 -27 -44 -35 -36 -5 4 -1 -5 8 -21 l18
-27 -31 -6 c-16 -4 -30 -10 -30 -14 0 -9 -20 -8 -36 2 -18 12 -40 -40 -26 -62
17 -27 -6 -32 -48 -10 -19 10 -50 26 -68 34 -18 9 -31 20 -27 26 6 9 21 8 112
-5 41 -6 34 14 -17 48 -27 19 -47 36 -45 39 3 3 -15 18 -40 32 -25 15 -45 31
-45 35 0 4 19 13 43 18 35 8 48 6 80 -11 20 -11 37 -23 37 -28z m1673 45 c-7
-2 -19 -2 -25 0 -7 3 -2 5 12 5 14 0 19 -2 13 -5z m-3163 -48 c0 -5 -5 -3 -10
5 -5 8 -10 20 -10 25 0 6 5 3 10 -5 5 -8 10 -19 10 -25z m48 -66 c-24 -16 -28
-9 -28 40 0 39 4 50 18 53 14 3 18 -5 20 -41 2 -28 -1 -47 -10 -52z m1262 87
c0 -7 -13 -16 -28 -18 -45 -6 -59 3 -26 18 39 17 54 17 54 0z m-4393 -28 c-2
-29 -5 -33 -32 -34 -16 0 -41 -4 -55 -8 -24 -7 -24 -6 -6 8 10 9 23 13 27 10
5 -3 9 3 9 12 0 10 3 15 6 11 3 -3 15 3 27 14 11 10 22 19 23 19 1 0 2 -15 1
-32z m3031 18 c-10 -7 -16 -15 -14 -17 3 -2 -13 -3 -35 -3 -21 1 -39 -2 -39
-7 0 -5 11 -7 24 -3 13 3 27 1 31 -5 3 -6 11 -9 16 -6 5 4 9 1 9 -4 0 -6 5
-11 11 -11 6 0 8 9 4 20 -5 14 -2 20 10 20 11 0 14 -7 11 -25 -3 -18 0 -25 10
-25 9 0 12 -5 8 -11 -4 -8 -30 -9 -77 -5 -78 7 -77 7 -81 32 -4 28 29 57 58
52 14 -3 26 -2 26 1 0 4 10 7 23 8 20 2 21 1 5 -11z m3852 10 c0 -2 -7 -7 -16
-10 -8 -3 -12 -2 -9 4 6 10 25 14 25 6z m-2180 -26 c0 -5 -4 -10 -10 -10 -5 0
-10 5 -10 10 0 6 5 10 10 10 6 0 10 -4 10 -10z m-3623 -22 c-3 -8 -6 -5 -6 6
-1 11 2 17 5 13 3 -3 4 -12 1 -19z m-41 -11 c4 -4 0 -7 -9 -7 -9 0 -18 4 -21
9 -7 10 20 9 30 -2z m6354 -7 c0 -5 -5 -10 -11 -10 -5 0 -7 5 -4 10 3 6 8 10
11 10 2 0 4 -4 4 -10z m-5360 -25 c0 -29 0 -29 -35 -13 -35 16 -32 38 5 38 25
0 30 -4 30 -25z m4549 16 c11 -7 1 -16 -37 -35 -28 -14 -54 -26 -57 -26 -12 0
25 45 47 57 28 15 29 15 47 4z m-5507 -38 c6 -7 4 -14 -4 -19 -7 -4 -10 -4 -6
1 5 5 -2 15 -13 23 -17 11 -18 16 -8 23 9 5 15 4 18 -4 2 -7 8 -17 13 -24z
m28 33 c0 -11 -19 -15 -25 -6 -3 5 1 10 9 10 9 0 16 -2 16 -4z m2733 -8 c4 -9
8 -10 14 -3 4 6 22 12 40 13 25 2 31 -1 29 -15 -2 -14 -10 -17 -34 -15 -22 2
-46 -7 -86 -34 -31 -20 -56 -39 -56 -41 0 -2 11 -1 25 3 64 16 -33 -68 -110
-95 l-30 -11 23 19 c12 11 22 31 22 45 0 20 9 30 43 47 49 25 97 67 97 86 0
17 17 17 23 1z m887 8 c0 -3 -4 -8 -10 -11 -5 -3 -10 -1 -10 4 0 6 5 11 10 11
6 0 10 -2 10 -4z m60 -16 c0 -21 -2 -25 -13 -21 -7 2 -20 3 -29 3 -10 0 -18 4
-18 9 0 6 4 8 9 4 5 -3 12 -1 16 5 8 13 35 13 35 0z m1120 -37 c0 -13 -51 -19
-63 -6 -4 3 3 17 15 30 21 23 23 23 35 7 7 -10 13 -24 13 -31z m-3575 -16 c-1
-15 3 -27 7 -27 4 0 8 5 8 10 0 6 4 10 9 10 11 0 9 -56 -3 -67 -5 -4 -6 -3 -2
5 5 8 0 12 -13 12 -14 0 -19 5 -15 15 4 8 1 15 -5 15 -6 0 -11 5 -11 11 0 5 5
7 10 4 6 -3 10 -1 10 4 0 6 -4 11 -8 11 -5 0 -9 7 -9 15 0 9 5 14 11 12 6 -2
11 -16 11 -30z m782 27 c-3 -3 -12 -4 -19 -1 -8 3 -5 6 6 6 11 1 17 -2 13 -5z
m1805 -14 c-3 -11 0 -11 12 0 13 10 16 10 16 -4 0 -9 -6 -16 -12 -17 -7 0 -25
-2 -40 -4 -32 -4 -34 1 -11 27 18 20 40 19 35 -2z m2095 -2 c-3 -8 -6 -5 -6 6
-1 11 2 17 5 13 3 -3 4 -12 1 -19z m-2617 -18 c0 -17 -3 -19 -19 -8 -21 13
-19 28 5 28 8 0 14 -9 14 -20z m399 4 c4 3 13 0 21 -6 12 -8 12 -9 -2 -4 -10
3 -20 1 -23 -5 -10 -15 -25 0 -18 18 4 11 8 13 11 5 2 -7 7 -10 11 -8z m-126
-11 c-3 -7 -10 -10 -17 -6 -18 12 -36 12 -36 0 0 -5 -3 -8 -6 -4 -12 11 5 23
34 22 19 0 28 -4 25 -12z m597 7 c0 -5 -5 -10 -11 -10 -5 0 -7 5 -4 10 3 6 8
10 11 10 2 0 4 -4 4 -10z m-2046 -9 c4 -5 -3 -7 -14 -4 -23 6 -26 13 -6 13 8
0 17 -4 20 -9z m951 -16 c0 -14 -6 -25 -12 -25 -16 0 -16 6 -3 31 14 25 15 24
15 -6z m1055 11 c0 -8 -7 -17 -16 -20 -8 -3 -13 -10 -10 -15 3 -5 -1 -12 -10
-15 -23 -9 -34 -7 -34 5 0 6 7 8 16 5 8 -3 12 -2 9 3 -3 6 3 14 12 20 10 6 14
11 10 11 -11 0 2 20 14 20 5 0 9 -6 9 -14z m-3510 -11 c0 -2 -7 -5 -15 -9 -9
-3 -15 0 -15 9 0 9 6 12 15 9 8 -4 15 -7 15 -9z m703 -45 c-3 -3 -11 4 -19 14
-10 14 -14 16 -14 5 0 -12 -2 -12 -9 1 -17 26 1 32 24 9 12 -13 20 -26 18 -29z
m2288 37 c-6 -8 -7 -18 -3 -22 4 -5 2 -5 -5 -1 -14 8 -6 36 9 36 7 0 6 -5 -1
-13z m-61 -7 c15 8 21 6 30 -10 7 -13 7 -20 0 -20 -17 0 -25 5 -22 13 1 5 -7
6 -18 2 -15 -5 -20 -2 -19 12 0 10 3 13 6 6 3 -9 10 -10 23 -3z m124 1 c3 -5
-1 -11 -9 -14 -9 -4 -12 -1 -8 9 6 16 10 17 17 5z m-944 -20 c0 -5 -9 -11 -21
-14 -16 -4 -18 -3 -8 9 13 16 29 19 29 5z m907 -11 c1 -12 -4 -20 -13 -20 -12
0 -12 4 -4 20 6 11 12 20 13 20 2 0 3 -9 4 -20z m381 8 c7 -7 12 -19 12 -27 0
-11 -4 -10 -15 5 -13 16 -14 16 -9 2 4 -13 1 -18 -12 -18 -12 0 -15 3 -8 8 6
4 10 15 8 25 -3 20 7 22 24 5z m-7607 -42 c52 -19 114 -44 139 -55 37 -17 40
-20 15 -16 -151 24 -173 29 -207 52 -43 29 -66 53 -50 53 5 0 52 -15 103 -34z
m381 0 c52 -24 52 -24 20 -25 -29 -1 -122 42 -122 56 0 8 46 -6 102 -31z
m7704 25 c-9 -14 -55 -20 -50 -7 3 7 16 13 30 14 14 1 23 -2 20 -7z m-1766
-20 c0 -14 -10 -21 -36 -26 -48 -9 -52 -2 -12 24 41 26 48 26 48 2z m3410 -6
c0 -9 -6 -12 -16 -8 -13 5 -13 7 -2 14 17 11 18 11 18 -6z m-2511 2 c-2 -1
-12 -9 -22 -16 -15 -12 -17 -12 -11 3 3 9 13 16 22 16 8 0 13 -1 11 -3z
m-4005 -108 c5 -5 -5 -5 -22 1 -37 10 -43 12 -57 15 -5 1 -26 7 -45 13 -30 10
-37 9 -54 -8 -18 -18 -20 -18 -34 -2 -13 16 -13 16 -8 -2 6 -16 2 -18 -27 -13
-19 3 -40 1 -48 -4 -11 -8 -10 -10 6 -8 36 3 78 -1 73 -6 -5 -6 -213 -51 -290
-64 -27 -4 -48 -5 -48 -1 0 4 34 23 75 41 41 18 75 36 75 40 0 3 -8 13 -17 20
-15 12 -16 12 -8 -1 4 -8 -2 -5 -14 8 -12 12 -27 20 -33 16 -7 -4 -5 -10 3
-16 10 -7 7 -8 -11 -4 -14 3 -47 8 -75 12 -27 3 -51 7 -53 9 -2 1 12 12 31 23
29 16 46 19 108 14 71 -5 73 -6 44 -18 l-30 -13 40 0 c22 0 92 10 155 23 l115
23 70 -45 c38 -25 74 -49 79 -53z m1785 62 c-15 -5 -22 6 -14 19 6 9 10 9 16
-1 5 -8 4 -15 -2 -18z m1486 19 c-3 -5 -15 -10 -26 -10 -11 0 -17 5 -14 10 3
6 15 10 26 10 11 0 17 -4 14 -10z m685 0 c0 -5 -5 -10 -11 -10 -5 0 -7 5 -4
10 3 6 8 10 11 10 2 0 4 -4 4 -10z m-530 -17 c40 -5 49 -8 35 -14 -17 -6 -15
-8 10 -9 31 -1 92 -29 65 -30 -20 0 -119 -48 -100 -48 8 0 26 3 40 7 17 5 30
1 42 -11 19 -19 24 -33 9 -23 -14 8 -24 -14 -13 -28 8 -9 2 -12 -21 -13 -18 0
-97 -3 -177 -7 l-145 -7 60 17 60 17 -53 8 c-29 4 -62 13 -72 18 -31 17 -35
11 -10 -15 l23 -25 -34 0 c-19 0 -40 -4 -48 -9 -9 -6 13 -11 65 -16 107 -10
125 -22 46 -31 -34 -3 -60 -9 -57 -12 6 -7 273 -99 313 -109 14 -3 21 -11 18
-18 -3 -8 2 -16 10 -19 8 -3 14 0 14 8 0 19 68 36 136 35 33 -1 51 -3 41 -6
-11 -3 -16 -11 -13 -19 3 -9 -1 -14 -12 -14 -13 -1 -11 -4 7 -14 24 -13 22
-14 -30 -18 -29 -2 -55 0 -57 4 -2 4 -15 3 -29 -3 -26 -10 -109 14 -328 96
-49 18 -111 36 -137 40 -50 8 -57 25 -10 25 56 0 55 16 -2 41 -31 13 -56 29
-56 35 0 6 21 18 48 25 l47 14 -35 5 -35 6 35 22 c19 12 44 22 55 22 25 0 40
10 47 31 7 19 97 47 153 48 22 1 65 -2 95 -6z m395 -67 l29 -24 -74 17 c-65
14 -71 16 -45 22 51 11 59 10 90 -15z m1569 -1 c-4 -8 -11 -15 -16 -15 -6 0
-5 6 2 15 7 8 14 15 16 15 2 0 1 -7 -2 -15z m-249 -14 c-39 -24 -115 -36 -115
-17 0 8 22 17 58 23 85 15 90 14 57 -6z m-1245 -1 c13 -8 13 -10 -2 -10 -9 0
-20 5 -23 10 -8 13 5 13 25 0z m-2599 -22 c9 0 21 -10 28 -24 6 -13 10 -24 8
-24 -1 0 -29 14 -62 31 -50 26 -54 30 -25 24 19 -4 42 -7 51 -7z m-3749 -19
c73 -6 140 -14 148 -17 20 -7 -91 -27 -266 -47 -131 -15 -145 -15 -220 0 -43
10 -132 20 -197 22 -65 3 -120 9 -122 13 -3 4 41 13 97 20 89 11 117 11 217
-5 l115 -17 19 27 c16 21 26 26 48 21 15 -3 87 -10 161 -17z m6230 0 c22 -6
38 -12 36 -14 -8 -8 -87 -22 -83 -15 5 9 -40 13 -119 11 -67 -1 -77 16 -15 27
58 11 118 8 181 -9z m-4715 -24 c3 -10 -85 -40 -93 -32 -2 1 -1 13 3 25 5 20
11 23 46 20 22 -2 42 -8 44 -13z m2443 -42 c2 -2 -2 -8 -10 -13 -13 -8 -12
-10 3 -10 18 0 21 -8 11 -33 -4 -12 -12 -12 -60 1 l-54 15 6 36 c10 64 10 64
56 35 24 -15 45 -29 48 -31z m4292 41 c-12 -8 -27 -12 -34 -8 -7 4 -8 3 -4 -4
4 -7 1 -12 -8 -12 -9 0 -15 6 -13 13 2 13 29 24 62 26 18 1 18 0 -3 -15z m10
-50 c-34 -25 -62 -48 -62 -50 0 -1 24 -1 53 2 l52 5 -48 -27 c-40 -23 -48 -32
-44 -51 3 -19 -4 -26 -42 -44 -25 -12 -54 -26 -64 -31 -17 -9 -17 -8 -3 20 8
15 22 35 31 42 9 7 23 27 31 43 l15 29 -58 -7 c-71 -8 -168 -37 -220 -66 -37
-22 -37 -21 12 24 49 45 87 60 228 91 15 4 27 11 27 17 0 6 4 8 10 4 5 -3 35
6 67 19 82 36 85 32 15 -20z m-6436 -9 c-11 -8 -22 -12 -25 -9 -6 6 19 24 34
24 6 -1 1 -7 -9 -15z m4134 -5 c4 7 111 -38 126 -53 2 -2 -26 0 -64 5 -74 9
-182 37 -182 48 0 4 26 3 57 -1 32 -4 60 -4 63 1z m-1292 -31 c-21 -17 -38
-39 -38 -49 0 -11 -5 -22 -11 -25 -11 -7 -183 -45 -203 -45 -6 0 -36 23 -66
51 -34 31 -47 48 -35 45 87 -21 220 -10 255 20 24 20 62 33 100 33 l35 0 -37
-30z m132 -3 c0 -19 -7 -25 -42 -34 -23 -6 -44 -10 -45 -8 -3 2 78 66 84 66 2
0 3 -11 3 -24z m-2944 -11 c10 -8 15 -15 9 -15 -12 -2 -32 -7 -62 -15 -19 -6
-21 -4 -16 15 3 12 9 18 12 13 5 -8 18 -9 39 -4 4 2 -2 6 -13 11 -14 6 -16 9
-4 9 8 1 24 -6 35 -14z m-401 -12 l47 -6 -56 -17 c-75 -24 -126 -33 -126 -23
0 5 7 19 16 31 16 24 38 27 119 15z m5303 -17 c57 -3 106 -7 109 -10 4 -3 -5
-6 -18 -6 -13 0 -44 -7 -68 -16 -42 -14 -47 -14 -117 12 -80 29 -93 38 -41 29
17 -3 78 -7 135 -9z m-373 -21 c-31 -13 -50 -11 -40 6 4 5 21 9 38 8 l32 -1
-30 -13z m-1585 -84 c0 -26 -7 -31 -106 -75 -59 -26 -108 -45 -111 -43 -10 11
12 37 32 37 12 0 28 7 35 15 11 13 10 15 -6 9 -10 -3 17 15 61 40 44 25 83 45
88 45 4 1 7 -12 7 -28z m3000 -52 c0 -9 -137 -88 -211 -121 -27 -13 -49 -27
-49 -31 0 -5 -4 -5 -10 -2 -5 3 -26 2 -46 -4 -20 -6 -35 -8 -33 -7 18 17 162
110 234 152 81 47 91 51 103 36 6 -8 12 -19 12 -23z m175 -8 c16 -7 1 -14 -67
-35 -47 -15 -125 -42 -172 -60 -47 -19 -86 -33 -86 -31 0 1 37 27 82 56 107
70 186 93 243 70z m-3440 -51 c-10 -11 -28 -20 -39 -20 -17 1 -14 5 14 20 45
24 47 24 25 0z m420 -44 c18 -17 2 -22 -95 -30 l-65 -6 35 17 c19 9 51 19 70
23 19 4 36 8 38 9 2 0 10 -5 17 -13z m-2450 -56 c-3 -5 -16 -10 -29 -10 -13 0
-34 -9 -47 -21 -34 -29 -63 -43 -144 -67 -93 -27 -155 -37 -155 -24 0 38 21
60 62 67 24 4 57 9 73 12 17 4 40 7 53 7 12 1 22 6 22 11 0 6 5 3 10 -5 7 -12
10 -12 10 -1 0 7 6 11 15 8 8 -4 17 -2 20 3 3 5 13 9 23 9 13 0 62 11 90 20 2
1 0 -3 -3 -9z m2630 0 c19 -8 19 -9 -2 -9 -12 -1 -25 4 -28 9 -7 12 2 12 30 0z
m2385 -9 c0 -5 -7 -11 -15 -15 -15 -5 -20 5 -8 17 9 10 23 9 23 -2z m-5998
-15 c18 -13 15 -27 -5 -22 -7 2 -9 1 -4 -1 4 -3 5 -9 2 -13 -3 -5 -1 -12 5
-15 6 -4 9 -1 8 6 -5 21 26 21 40 -1 11 -19 10 -20 -20 -20 -26 0 -38 7 -55
33 -13 18 -23 36 -23 40 0 12 34 7 52 -7z m328 5 c0 -6 -9 -9 -20 -8 -11 1
-20 5 -20 9 0 4 9 8 20 8 11 0 20 -4 20 -9z m6347 -21 c21 -5 34 -4 37 4 3 6
3 0 0 -14 l-5 -25 19 24 c17 21 19 21 21 5 6 -39 6 -113 0 -118 -11 -11 -39 5
-39 22 0 13 3 12 14 -4 13 -17 14 -15 14 27 0 46 0 47 -30 44 -36 -3 -98 14
-98 27 0 5 -6 8 -12 7 -24 -3 -38 1 -38 10 0 14 42 19 65 7 11 -5 34 -12 52
-16z m-2627 -40 c0 -26 2 -28 23 -21 12 5 21 14 19 21 -4 19 38 2 103 -43 73
-50 215 -158 215 -164 0 -2 -32 13 -71 33 -44 23 -114 48 -182 64 l-111 26
-102 -20 -103 -20 -103 42 c-57 24 -93 41 -80 38 14 -2 22 1 22 9 0 8 11 12
31 11 21 -2 33 4 41 17 9 17 18 19 72 14 33 -3 93 1 131 8 98 18 95 19 95 -15z
m-3730 10 c-37 -12 -82 -12 -75 0 3 6 27 10 53 9 38 -1 42 -2 22 -9z m3364 1
c10 -15 -18 -19 -32 -5 -11 12 -9 14 7 14 11 0 22 -4 25 -9z m-1124 -6 c0 -11
-124 -66 -138 -60 -23 9 -4 21 68 43 36 11 66 21 68 21 1 1 2 -1 2 -4z m1650
-25 c0 -5 -4 -10 -9 -10 -6 0 -13 5 -16 10 -3 6 1 10 9 10 9 0 16 -4 16 -10z
m2660 -4 c0 -9 -72 -46 -81 -41 -5 4 -9 15 -9 26 0 16 7 19 45 19 25 0 45 -2
45 -4z m-178 -23 c-10 -4 -10 -8 0 -21 12 -14 9 -15 -21 -9 -18 4 -40 7 -49 7
-24 0 -7 11 30 20 38 9 59 11 40 3z m-1852 -53 c0 -16 -7 -20 -32 -20 -18 0
-44 -3 -58 -5 -14 -3 -2 6 25 20 61 30 65 30 65 5z m-355 -3 c30 0 35 -1 20
-7 -11 -5 -15 -9 -10 -9 6 -1 21 -17 34 -36 13 -20 42 -44 65 -55 l41 -19 -50
5 c-108 13 -120 18 -117 45 3 23 -5 29 -65 57 l-68 32 55 -7 c30 -4 73 -7 95
-6z m969 -96 c9 -4 -106 -40 -131 -41 -14 0 -18 32 -6 44 8 8 121 6 137 -3z
m-1386 -27 c19 -4 34 -15 41 -31 15 -32 9 -38 -21 -22 -12 7 -61 16 -108 19
l-85 6 65 16 c80 20 72 19 108 12z m797 -4 c4 -6 -10 -10 -37 -9 -40 1 -41 2
-13 9 43 11 43 11 50 0z m50 -34 c72 -19 144 -45 130 -46 -5 -1 -53 -4 -105
-6 -52 -3 -133 -11 -180 -19 -47 -7 -121 -17 -165 -20 -73 -6 -78 -6 -60 8 24
19 16 28 -27 32 -17 1 -34 7 -36 14 -2 6 -21 11 -42 11 -72 0 -80 12 -20 32
47 15 83 17 250 13 134 -2 214 -9 255 -19z m-443 -76 c-2 -14 -5 -26 -5 -26
-1 -1 -38 -4 -82 -8 l-80 -5 70 34 c81 40 102 41 97 5z m1393 -12 c30 -23 53
-43 52 -45 -2 -2 -94 19 -146 34 -11 3 -8 10 9 28 13 14 25 25 27 25 3 0 29
-19 58 -42z m-1662 -18 c8 0 31 -11 51 -25 40 -27 51 -31 41 -14 -4 5 10 3 32
-6 21 -9 55 -23 76 -32 20 -8 37 -19 37 -24 0 -17 -30 -9 -78 21 -52 31 -68
37 -57 20 9 -14 -45 -1 -65 15 -8 7 -41 27 -72 45 -66 36 -79 51 -18 20 21
-11 46 -20 53 -20z m871 24 c9 -4 16 -18 16 -34 l0 -29 -117 -3 c-72 -3 -141
-11 -177 -21 -32 -10 -61 -16 -63 -14 -2 2 14 15 34 29 124 81 112 77 205 77
47 1 93 -2 102 -5z m-464 -144 c21 -7 17 -8 -20 -9 -25 0 -52 4 -60 9 -19 12
42 12 80 0z m518 -149 c-3 -26 -4 -26 -107 -34 -97 -8 -108 -7 -153 14 -26 12
-46 24 -44 26 2 3 18 -3 35 -11 16 -9 39 -16 51 -16 25 0 108 41 163 81 l42
30 8 -31 c4 -18 7 -44 5 -59z m-7048 -226 c0 -9 4 -14 8 -11 4 2 14 0 22 -5
13 -9 13 -10 0 -8 -36 4 -40 0 -29 -27 5 -15 7 -29 4 -32 -3 -3 1 -12 9 -21
13 -14 12 -19 -1 -36 -14 -18 -15 -18 -9 -2 4 13 2 17 -6 14 -7 -2 -19 3 -26
12 -11 13 -12 13 -6 1 5 -12 4 -12 -6 -3 -16 14 -3 36 17 28 14 -5 14 -3 2 12
-7 10 -14 20 -16 22 -1 2 -7 -9 -13 -24 -10 -26 -12 -27 -27 -13 -16 16 -9 43
8 33 5 -4 9 -1 9 5 0 6 4 9 9 5 5 -3 17 2 26 11 25 26 1 34 -78 28 -80 -7
-128 6 -57 16 25 3 71 7 103 8 47 3 57 0 57 -13z m57 -80 c0 -9 -10 -15 -24
-15 -14 0 -21 4 -18 10 4 6 11 8 16 5 5 -4 9 -1 9 4 0 6 4 11 8 11 5 0 9 -7 9
-15z m-284 -153 c4 -18 2 -21 -7 -10 -6 7 -17 18 -25 25 -11 10 -10 12 7 10
13 -1 22 -10 25 -25z m-19 -18 c3 -8 2 -12 -4 -9 -6 3 -10 10 -10 16 0 14 7
11 14 -7z m26 -33 c0 -5 -9 -7 -20 -4 -11 3 -20 7 -20 9 0 2 9 4 20 4 11 0 20
-4 20 -9z m5703 -128 c-7 -3 -13 -9 -13 -15 0 -20 -26 -33 -70 -35 l-45 -2 38
16 c20 8 37 19 37 25 0 5 5 6 10 3 6 -3 10 -2 10 2 0 5 10 9 23 10 12 0 16 -1
10 -4z m1815 -19 c25 -17 30 -39 7 -30 -8 3 -15 1 -15 -4 0 -5 8 -11 18 -14 9
-2 -5 -2 -33 1 -27 3 -55 12 -61 20 -7 8 -14 10 -15 5 -5 -11 -69 -3 -69 8 0
8 80 26 125 29 11 0 31 -6 43 -15z m-1558 -15 c0 -5 -12 -9 -27 -9 -27 1 -27
1 -9 15 19 14 36 12 36 -6z m3535 -145 c17 -1 36 -3 43 -3 6 -1 12 -5 12 -11
0 -5 -10 -8 -22 -6 -13 3 -47 5 -75 5 -29 1 -53 5 -53 10 0 12 31 20 50 13 8
-3 29 -7 45 -8z"/>
<path d="M760 3268 c-13 -18 -17 -27 -8 -21 8 7 18 11 21 8 4 -3 5 -2 2 1 -2
4 0 15 6 25 15 29 5 23 -21 -13z"/>
<path d="M660 3240 c0 -5 7 -7 15 -4 8 4 15 8 15 10 0 2 -7 4 -15 4 -8 0 -15
-4 -15 -10z"/>
<path d="M516 3195 c-2 -6 2 -12 10 -12 7 0 15 6 18 12 2 6 -2 12 -10 12 -7 0
-15 -6 -18 -12z"/>
<path d="M730 3200 c0 -5 5 -10 11 -10 5 0 7 5 4 10 -3 6 -8 10 -11 10 -2 0
-4 -4 -4 -10z"/>
<path d="M563 3193 c-23 -9 -14 -31 17 -42 37 -12 40 -4 4 9 -22 9 -24 13 -14
25 13 16 13 16 -7 8z"/>
<path d="M1091 3344 c0 -11 3 -14 6 -6 3 7 2 16 -1 19 -3 4 -6 -2 -5 -13z"/>
<path d="M1057 3286 c-4 -10 -1 -13 8 -9 8 3 12 9 9 14 -7 12 -11 11 -17 -5z"/>
<path d="M970 2864 c0 -8 5 -12 10 -9 6 3 10 10 10 16 0 5 -4 9 -10 9 -5 0
-10 -7 -10 -16z"/>
<path d="M1030 2860 c0 -5 5 -10 10 -10 6 0 10 5 10 10 0 6 -4 10 -10 10 -5 0
-10 -4 -10 -10z"/>
<path d="M1110 2843 c0 -15 -2 -16 -10 -3 -8 13 -10 13 -10 -2 0 -9 -5 -18
-12 -20 -8 -3 -9 -6 -1 -11 5 -3 20 4 32 17 15 15 19 26 12 31 -6 3 -11 -2
-11 -12z"/>
<path d="M1050 2801 c0 -8 -6 -11 -17 -7 -10 4 -14 4 -10 0 4 -4 2 -13 -5 -21
-9 -11 -8 -13 3 -11 17 4 43 37 35 45 -3 4 -6 1 -6 -6z"/>
<path d="M715 2800 c3 -5 8 -10 11 -10 2 0 4 5 4 10 0 6 -5 10 -11 10 -5 0 -7
-4 -4 -10z"/>
<path d="M9965 2730 c-3 -6 1 -7 9 -4 18 7 21 14 7 14 -6 0 -13 -4 -16 -10z"/>
<path d="M9890 2700 c0 -5 14 -10 30 -10 17 0 30 5 30 10 0 6 -13 10 -30 10
-16 0 -30 -4 -30 -10z"/>
<path d="M7462 2501 c-11 -7 -11 -9 0 -14 9 -3 15 1 15 9 0 8 -1 14 -1 14 -1
0 -7 -4 -14 -9z"/>
<path d="M6355 1600 c3 -5 12 -7 20 -3 21 7 19 13 -6 13 -11 0 -18 -4 -14 -10z"/>
<path d="M3836 5311 c-44 -15 -82 -33 -84 -39 -5 -15 9 -15 83 3 76 19 75 19
75 -5 0 -12 5 -17 13 -14 8 3 26 0 40 -5 15 -6 27 -9 27 -7 0 14 -54 96 -63
95 -7 0 -48 -13 -91 -28z"/>
<path d="M2190 5255 c0 -26 5 -45 11 -45 6 0 9 -7 5 -15 -10 -26 9 -16 27 15
17 29 17 30 -4 60 -13 16 -26 30 -31 30 -4 0 -8 -20 -8 -45z"/>
<path d="M3900 5218 c0 -22 -2 -23 -86 -20 -79 3 -85 2 -82 -15 2 -10 -2 -23
-10 -28 -18 -14 2 -105 36 -163 28 -49 114 -122 143 -122 10 0 19 -5 19 -12 0
-7 11 -24 25 -38 14 -15 45 -56 68 -91 39 -59 94 -109 121 -109 7 0 10 28 8
85 -3 81 -3 85 18 85 12 0 37 12 56 26 42 33 43 25 3 -21 -22 -25 -28 -39 -21
-48 5 -6 12 -46 16 -87 3 -48 2 -67 -4 -54 -13 32 -28 37 -39 16 -9 -17 -2
-23 58 -51 37 -17 74 -31 82 -31 8 0 19 -4 25 -9 43 -40 194 -36 245 6 21 18
29 34 29 56 0 24 -3 28 -10 17 -12 -19 -13 -12 -14 75 l-1 70 -47 1 c-32 0
-49 -4 -52 -13 -3 -8 -10 -11 -16 -8 -15 9 -86 9 -102 -1 -14 -9 -56 -6 -73 4
-5 4 -21 7 -35 8 -52 3 -53 4 -29 23 13 11 29 16 34 11 22 -18 75 -21 122 -7
46 14 50 14 61 -4 7 -10 18 -19 25 -19 8 0 7 4 -3 10 -12 8 -10 10 10 11 l25
0 -25 11 c-50 21 -66 29 -135 66 -68 38 -72 42 -121 133 -50 90 -78 129 -95
129 -5 0 -6 -6 -3 -14 6 -14 -39 -31 -56 -21 -5 3 -25 2 -44 -4 -19 -5 -37 -7
-40 -4 -3 3 -26 7 -51 8 l-45 2 0 -54 c0 -52 -1 -53 -25 -47 -20 5 -27 1 -37
-22 l-12 -29 -4 38 c-2 26 3 46 18 67 12 17 19 30 15 30 -3 0 5 20 19 44 13
23 26 51 27 61 6 27 49 26 86 -1 33 -25 58 -30 67 -15 3 5 -2 8 -12 7 -12 -1
-16 5 -15 21 2 18 -6 26 -33 38 -47 20 -54 19 -54 -5 0 -11 -5 -20 -10 -20 -6
0 -8 11 -4 25 4 15 2 25 -5 25 -6 0 -11 -10 -11 -22z m104 -314 c9 -3 16 -13
16 -20 0 -12 -4 -12 -20 -4 -11 6 -20 15 -20 20 0 12 3 12 24 4z m298 -47 c7
-8 20 -16 28 -19 9 -3 -1 -9 -23 -13 -44 -9 -51 -4 -42 24 7 24 18 26 37 8z
m270 -169 c-2 -29 -6 -55 -9 -57 -7 -8 -32 24 -38 49 -5 20 0 28 22 42 15 10
28 18 29 18 1 0 -1 -24 -4 -52z m-111 -30 c11 -21 11 -22 -4 -9 -10 7 -17 17
-17 22 0 15 9 10 21 -13z m35 -64 c-20 -14 -12 -19 24 -15 23 3 -20 -25 -50
-32 -22 -5 -26 -3 -28 18 -2 25 23 46 46 38 6 -3 12 1 12 8 0 7 3 9 7 5 5 -4
-1 -14 -11 -22z"/>
<path d="M4077 5121 c3 -12 10 -21 15 -21 13 0 6 32 -9 37 -7 3 -9 -3 -6 -16z"/>
<path d="M5832 4007 c-7 -8 -9 -16 -6 -20 3 -3 3 -15 -1 -26 -5 -16 -15 -21
-40 -21 -19 0 -57 -5 -84 -11 l-50 -10 -46 -90 -46 -89 42 -96 c37 -82 45 -95
63 -90 12 2 56 12 98 21 l77 17 35 60 c20 32 36 61 36 64 0 2 11 22 25 44 20
32 23 44 15 60 -6 11 -19 20 -29 20 -28 0 -44 26 -38 60 9 41 -1 64 -19 49
-21 -17 -29 -3 -15 27 14 31 1 53 -17 31z m-7 -97 c-3 -5 -12 -10 -18 -10 -7
0 -6 4 3 10 19 12 23 12 15 0z"/>
<path d="M101 3314 c0 -11 3 -14 6 -6 3 7 2 16 -1 19 -3 4 -6 -2 -5 -13z"/>
<path d="M56 3098 c3 -5 10 -6 15 -3 13 9 11 12 -6 12 -8 0 -12 -4 -9 -9z"/>
<path d="M8493 3079 c9 -5 17 -17 17 -25 0 -8 5 -12 10 -9 6 3 10 -1 10 -9 0
-19 15 -20 73 -4 41 11 45 10 110 -29 40 -25 75 -39 86 -36 13 3 20 -1 23 -14
2 -12 6 -14 11 -6 5 8 -12 24 -48 48 -30 19 -60 35 -66 35 -13 0 -72 40 -77
52 -2 4 -40 8 -85 8 -61 -1 -77 -3 -64 -11z m147 -19 c0 -6 -16 -10 -35 -8
-19 1 -35 6 -35 10 0 4 16 8 35 8 19 0 35 -5 35 -10z"/>
<path d="M245 3051 c6 -10 4 -13 -6 -9 -8 3 -20 0 -26 -7 -10 -10 -8 -15 5
-21 9 -4 21 -6 25 -5 5 1 6 -3 2 -9 -4 -7 -12 -7 -26 0 -11 7 -19 7 -19 1 0
-5 -8 -12 -17 -14 -16 -4 -15 -5 1 -6 19 -1 19 -1 1 -15 -19 -14 -31 -51 -13
-40 6 4 8 -2 3 -17 l-7 -24 26 24 c18 17 23 28 16 36 -7 9 -6 16 5 25 8 7 15
10 15 6 0 -3 8 2 18 12 23 22 25 47 4 64 -13 11 -14 11 -7 -1z m-50 -112 c11
-16 1 -19 -13 -3 -7 8 -8 14 -3 14 5 0 13 -5 16 -11z"/>
<path d="M21 3013 c0 -11 3 -13 6 -5 2 6 10 9 15 6 7 -4 8 -2 4 4 -11 18 -26
14 -25 -5z"/>
<path d="M380 2984 c0 -14 22 -44 33 -44 7 0 6 4 -3 10 -13 8 -12 10 3 10 18
0 23 15 8 24 -5 4 -12 0 -14 -6 -4 -10 -6 -10 -6 0 -1 11 -21 18 -21 6z"/>
<path d="M8005 2953 c-32 -12 -71 -24 -85 -24 -17 -1 -20 -3 -7 -6 14 -4 16
-8 6 -19 -10 -12 -5 -14 29 -14 58 0 89 14 107 50 9 18 15 33 13 34 -2 2 -30
-8 -63 -21z"/>
<path d="M372 2905 c-6 -14 -7 -25 -3 -25 5 0 12 8 14 18 4 13 5 12 6 -4 1
-22 -23 -39 -40 -28 -5 3 -9 1 -9 -4 0 -5 14 -12 31 -14 24 -4 32 -1 39 16 4
12 4 23 -1 24 -5 2 -9 12 -9 23 0 27 -15 24 -28 -6z"/>
<path d="M3 2900 c-2 -23 13 -35 23 -19 5 8 3 9 -6 4 -10 -6 -12 -4 -7 8 3 9
3 18 -1 21 -4 3 -8 -4 -9 -14z"/>
<path d="M60 2911 c0 -6 4 -13 10 -16 6 -3 7 1 4 9 -7 18 -14 21 -14 7z"/>
<path d="M545 2780 c3 -5 8 -10 11 -10 2 0 4 5 4 10 0 6 -5 10 -11 10 -5 0 -7
-4 -4 -10z"/>
<path d="M7748 2783 c-10 -2 -18 -9 -18 -14 0 -5 8 -9 18 -9 28 0 62 12 62 21
0 9 -31 10 -62 2z"/>
<path d="M9178 2783 c6 -2 18 -2 25 0 6 3 1 5 -13 5 -14 0 -19 -2 -12 -5z"/>
<path d="M10192 2611 c-11 -6 -9 -9 7 -14 11 -3 25 1 32 9 9 11 8 14 -7 14
-11 0 -25 -4 -32 -9z"/>
<path d="M6856 2589 c-54 -13 -60 -22 -11 -16 48 7 102 26 70 25 -11 0 -38 -4
-59 -9z"/>
<path d="M7715 2580 c-4 -6 -10 -8 -14 -6 -4 3 -8 -1 -8 -9 0 -8 4 -15 9 -15
4 0 8 5 8 11 0 6 7 9 14 6 10 -4 13 -1 9 9 -6 17 -10 17 -18 4z"/>
<path d="M7662 2564 c-7 -8 -17 -12 -22 -9 -6 3 -7 -1 -4 -10 4 -9 9 -14 11
-11 3 3 15 1 27 -4 13 -5 29 -4 37 1 12 8 12 10 -1 8 -34 -3 -41 1 -35 21 7
24 5 25 -13 4z"/>
<path d="M8045 2529 c-4 -6 -5 -12 -2 -15 2 -3 7 2 10 11 7 17 1 20 -8 4z"/>
<path d="M8005 2520 c-3 -6 1 -7 9 -4 18 7 21 14 7 14 -6 0 -13 -4 -16 -10z"/>
<path d="M4675 2440 c3 -5 14 -10 23 -10 15 0 15 2 2 10 -20 13 -33 13 -25 0z"/>
<path d="M7830 2426 c0 -2 9 -6 20 -9 11 -3 18 -1 14 4 -5 9 -34 13 -34 5z"/>
<path d="M4900 2325 c35 -37 46 -44 34 -22 -13 23 -47 57 -58 57 -5 0 5 -16
24 -35z"/>
</g>
</svg>
